<svg width="16" height="17" viewBox="0 0 16 17" fill="none" xmlns="http://www.w3.org/2000/svg">
<path d="M7.16196 3.598C7.4329 3.55795 7.7124 3.53646 8.00028 3.53646C11.4036 3.53646 13.6369 6.53969 14.3871 7.72767C14.4779 7.87146 14.5233 7.94335 14.5488 8.05424C14.5678 8.13752 14.5678 8.2689 14.5487 8.35218C14.5233 8.46306 14.4776 8.53543 14.3861 8.68017C14.1862 8.99656 13.8814 9.44119 13.4777 9.92343M4.48288 4.67982C3.0415 5.65759 2.06297 7.01604 1.61407 7.72665C1.52286 7.87104 1.47725 7.94323 1.45183 8.05411C1.43273 8.13739 1.43272 8.26875 1.45181 8.35203C1.47722 8.46291 1.52262 8.5348 1.61342 8.67858C2.36369 9.86657 4.59694 12.8698 8.00028 12.8698C9.37255 12.8698 10.5546 12.3815 11.5259 11.7209M2.00028 2.20312L14.0003 14.2031M6.58606 6.78891C6.22413 7.15084 6.00028 7.65084 6.00028 8.20313C6.00028 9.30769 6.89571 10.2031 8.00028 10.2031C8.55256 10.2031 9.05256 9.97927 9.41449 9.61734" stroke="#9A9A9A" stroke-width="1.5" stroke-linecap="round" stroke-linejoin="round"/>
</svg>
