<svg width="16" height="16" viewBox="0 0 16 16" fill="none" xmlns="http://www.w3.org/2000/svg">
<g clip-path="url(#clip0_1064_108981)">
<path d="M2.84456 12.5632C2.99448 13.6767 3.91677 14.549 5.03912 14.6006C5.98353 14.644 6.94288 14.6667 7.99935 14.6667C9.05581 14.6667 10.0152 14.644 10.9596 14.6006C12.0819 14.549 13.0042 13.6767 13.1541 12.5632C13.252 11.8365 13.3327 11.0917 13.3327 10.3333C13.3327 9.57492 13.252 8.83021 13.1541 8.1035C13.0042 6.99001 12.0819 6.11766 10.9596 6.06606C10.0152 6.02265 9.05581 6 7.99935 6C6.94288 6 5.98353 6.02265 5.03912 6.06606C3.91677 6.11766 2.99447 6.99001 2.84456 8.1035C2.74671 8.83021 2.66601 9.57492 2.66601 10.3333C2.66601 11.0917 2.74671 11.8365 2.84456 12.5632Z" stroke="#999999" stroke-width="1.5"/>
<path d="M5 6.00004V4.33337C5 2.67652 6.34315 1.33337 8 1.33337C9.65685 1.33337 11 2.67652 11 4.33337V6.00004" stroke="#999999" stroke-width="1.5" stroke-linecap="round" stroke-linejoin="round"/>
<circle cx="8" cy="10.3334" r="2" fill="#999999"/>
</g>
<defs>
<clipPath id="clip0_1064_108981">
<rect width="16" height="16" fill="white"/>
</clipPath>
</defs>
</svg>
