<svg width="23" height="24" viewBox="0 0 23 24" fill="none" xmlns="http://www.w3.org/2000/svg">
<path d="M12.72 8.26129C12.5875 8.11912 12.5154 7.93107 12.5188 7.73677C12.5223 7.54247 12.601 7.35708 12.7384 7.21967C12.8758 7.08226 13.0612 7.00355 13.2555 7.00012C13.4498 6.99669 13.6378 7.06881 13.78 7.20129L17.78 11.2013C17.9205 11.3419 17.9993 11.5325 17.9993 11.7313C17.9993 11.93 17.9205 12.1207 17.78 12.2613L13.78 16.2613C13.7113 16.335 13.6285 16.3941 13.5365 16.4351C13.4445 16.4761 13.3452 16.4981 13.2445 16.4999C13.1438 16.5017 13.0438 16.4831 12.9504 16.4454C12.857 16.4077 12.7722 16.3515 12.701 16.2803C12.6297 16.2091 12.5736 16.1243 12.5359 16.0309C12.4982 15.9375 12.4796 15.8375 12.4814 15.7368C12.4832 15.6361 12.5052 15.5368 12.5462 15.4448C12.5872 15.3528 12.6463 15.27 12.72 15.2013L15.44 12.4813H5.75C5.55109 12.4813 5.36032 12.4023 5.21967 12.2616C5.07902 12.121 5 11.9302 5 11.7313C5 11.5324 5.07902 11.3416 5.21967 11.201C5.36032 11.0603 5.55109 10.9813 5.75 10.9813H15.44L12.72 8.26129Z" fill="#09090B"/>
</svg>
