<svg width="10" height="10" viewBox="0 0 10 10" fill="none" xmlns="http://www.w3.org/2000/svg">
<path d="M8.77189 3.1954V0H7.79724V0.974654H1.94931V0H0.974654V3.1954C0.394735 3.53312 0 4.15446 0 4.87327V6.82258C0 6.95183 0.0513432 7.07578 0.142735 7.16717C0.234126 7.25856 0.35808 7.30991 0.487327 7.30991H0.974654V9.25921H1.94931V7.30991H7.79724V9.25921H8.77189V7.30991H9.25922C9.38846 7.30991 9.51242 7.25856 9.60381 7.16717C9.6952 7.07578 9.74654 6.95183 9.74654 6.82258V4.87327C9.74654 4.15446 9.35132 3.53312 8.77189 3.1954ZM7.79724 1.94931V2.92396H5.3606V1.94931H7.79724ZM1.94931 1.94931H4.38594V2.92396H1.94931V1.94931ZM8.77189 6.33525H0.974654V4.87327C0.974654 4.33575 1.41179 3.89862 1.94931 3.89862H7.79724C8.33476 3.89862 8.77189 4.33575 8.77189 4.87327V6.33525Z" fill="#09090B"/>
</svg>
