<svg width="15" height="15" viewBox="0 0 15 15" fill="none" xmlns="http://www.w3.org/2000/svg">
<path d="M10.084 6.0835L11.5169 6.51337C12.4324 6.78801 12.8901 6.92533 13.1537 7.27963C13.4173 7.63393 13.4173 8.11181 13.4173 9.06758V14.0835" stroke="white" stroke-width="1.5" stroke-linejoin="round"/>
<path d="M4.75 5.4165L6.75 5.4165M4.75 8.08317L6.75 8.08317" stroke="white" stroke-width="1.5" stroke-linecap="round" stroke-linejoin="round"/>
<path d="M7.41732 14.0833V12.0833C7.41732 11.4548 7.41732 11.1405 7.22206 10.9453C7.02679 10.75 6.71252 10.75 6.08398 10.75H5.41732C4.78878 10.75 4.47451 10.75 4.27925 10.9453C4.08398 11.1405 4.08398 11.4548 4.08398 12.0833V14.0833" stroke="white" stroke-width="1.5" stroke-linejoin="round"/>
<path d="M0.75 14.0835L14.0833 14.0835" stroke="white" stroke-width="1.5" stroke-linecap="round"/>
<path d="M1.41602 14.0833V3.89483C1.41602 2.22099 1.41602 1.38408 1.94347 0.968829C2.47093 0.553583 3.24763 0.779032 4.80103 1.22993L8.13436 2.19748C9.07177 2.46958 9.54048 2.60563 9.81158 2.97644C10.0827 3.34725 10.0827 3.85229 10.0827 4.86238V14.0833" stroke="white" stroke-width="1.5" stroke-linecap="round" stroke-linejoin="round"/>
</svg>
