<svg width="56" height="56" viewBox="0 0 56 56" fill="none" xmlns="http://www.w3.org/2000/svg">
<path d="M28 3.5C23.1544 3.5 18.4175 4.9369 14.3885 7.62899C10.3595 10.3211 7.21931 14.1475 5.36496 18.6243C3.51062 23.101 3.02543 28.0272 3.97077 32.7797C4.91611 37.5322 7.24951 41.8977 10.6759 45.3241C14.1023 48.7505 18.4678 51.0839 23.2203 52.0292C27.9728 52.9746 32.899 52.4894 37.3758 50.635C41.8525 48.7807 45.6789 45.6405 48.371 41.6115C51.0631 37.5825 52.5 32.8456 52.5 28C52.5 21.5022 49.9188 15.2705 45.3241 10.6759C40.7295 6.08124 34.4978 3.5 28 3.5ZM28 49C23.8466 49 19.7865 47.7684 16.333 45.4609C12.8796 43.1534 10.188 39.8736 8.59854 36.0364C7.0091 32.1991 6.59323 27.9767 7.40352 23.9031C8.21381 19.8295 10.2139 16.0877 13.1508 13.1508C16.0877 10.2139 19.8295 8.2138 23.9031 7.40351C27.9767 6.59322 32.1991 7.00909 36.0364 8.59853C39.8736 10.188 43.1534 12.8796 45.4609 16.333C47.7684 19.7865 49 23.8466 49 28C49 33.5695 46.7875 38.911 42.8493 42.8492C38.911 46.7875 33.5696 49 28 49Z" fill="#F58700"/>
<path d="M26.25 14H29.75V33.25H26.25V14ZM28 38.5C27.4808 38.5 26.9733 38.654 26.5416 38.9424C26.11 39.2308 25.7735 39.6408 25.5748 40.1205C25.3761 40.6001 25.3242 41.1279 25.4254 41.6371C25.5267 42.1463 25.7767 42.614 26.1438 42.9812C26.511 43.3483 26.9787 43.5983 27.4879 43.6996C27.9971 43.8008 28.5249 43.7489 29.0045 43.5502C29.4842 43.3515 29.8942 43.0151 30.1826 42.5834C30.471 42.1517 30.625 41.6442 30.625 41.125C30.625 40.4288 30.3484 39.7611 29.8562 39.2688C29.3639 38.7766 28.6962 38.5 28 38.5Z" fill="#F58700"/>
</svg>
