<svg width="16" height="16" viewBox="0 0 16 16" fill="none" xmlns="http://www.w3.org/2000/svg">
<path d="M9.75905 13.005L4.57154 7.9418C4.44725 7.81751 4.38184 7.66706 4.38184 7.50352C4.38184 7.33343 4.45379 7.16989 4.57808 7.06523L9.75905 1.99547C9.87025 1.88426 10.0142 1.81885 10.1843 1.81885C10.5244 1.81885 10.7795 2.08051 10.7795 2.42068C10.7795 2.57768 10.7141 2.73467 10.6095 2.84588L5.84716 7.50352L10.6095 12.1611C10.7141 12.2724 10.7795 12.4228 10.7795 12.5864C10.7795 12.9265 10.5244 13.1816 10.1843 13.1816C10.0142 13.1816 9.87026 13.1162 9.75905 13.005Z" fill="#737373"/>
</svg>
