<svg width="7" height="12" viewBox="0 0 7 12" fill="none" xmlns="http://www.w3.org/2000/svg">
<path d="M5.37721 11.1862L0.189707 6.12296C0.0654165 5.99867 3.25372e-07 5.84821 3.16274e-07 5.68467C3.06811e-07 5.51459 0.0719581 5.35104 0.196249 5.24638L5.37721 0.176623C5.48842 0.0654159 5.63233 -3.13362e-07 5.80242 -3.22825e-07C6.14258 -3.4175e-07 6.3977 0.261664 6.3977 0.601829C6.3977 0.758828 6.33229 0.915826 6.22762 1.02703L1.46532 5.68467L6.22762 10.3423C6.33229 10.4535 6.3977 10.604 6.3977 10.7675C6.3977 11.1077 6.14258 11.3628 5.80242 11.3628C5.63233 11.3628 5.48842 11.2974 5.37721 11.1862Z" fill="#737373"/>
</svg>
