<svg width="15" height="15" viewBox="0 0 15 15" fill="none" xmlns="http://www.w3.org/2000/svg">
<path d="M1.75 6.08333C1.75 3.56918 1.75 2.3121 2.53105 1.53105C3.3121 0.75 4.56918 0.75 7.08333 0.75H8.08333C10.5975 0.75 11.8546 0.75 12.6356 1.53105C13.4167 2.3121 13.4167 3.56918 13.4167 6.08333V8.75C13.4167 11.2642 13.4167 12.5212 12.6356 13.3023C11.8546 14.0833 10.5975 14.0833 8.08333 14.0833H7.08333C4.56918 14.0833 3.3121 14.0833 2.53105 13.3023C1.75 12.5212 1.75 11.2642 1.75 8.75V6.08333Z" stroke="#141B34" stroke-width="1.5"/>
<path d="M5.61629 7.39936C5.33189 6.90345 5.19456 6.4985 5.11176 6.08802C4.98929 5.48093 5.26955 4.8879 5.73382 4.5095C5.93004 4.34957 6.15498 4.40421 6.27101 4.61238L6.53296 5.08233C6.74059 5.45483 6.84441 5.64107 6.82382 5.83853C6.80323 6.03599 6.66322 6.19681 6.3832 6.51846L5.61629 7.39936ZM5.61629 7.39936C6.19196 8.40314 7.09536 9.30704 8.1003 9.88337M8.1003 9.88337C8.59622 10.1678 9.00116 10.3051 9.41164 10.3879C10.0187 10.5104 10.6118 10.2301 10.9902 9.76584C11.1501 9.56962 11.0955 9.34469 10.8873 9.22866L10.4173 8.9667C10.0448 8.75907 9.85859 8.65525 9.66113 8.67585C9.46367 8.69644 9.30285 8.83645 8.98121 9.11646L8.1003 9.88337Z" stroke="#141B34" stroke-width="1.5" stroke-linejoin="round"/>
<path d="M2.41667 3.41666L0.75 3.41666M2.41667 7.41666L0.75 7.41666M2.41667 11.4167H0.75" stroke="#141B34" stroke-width="1.5" stroke-linecap="round" stroke-linejoin="round"/>
</svg>
