<svg width="16" height="16" viewBox="0 0 16 16" fill="none" xmlns="http://www.w3.org/2000/svg">
<path d="M2.66797 6.66665C2.66797 4.15249 2.66797 2.89541 3.44902 2.11436C4.23007 1.33331 5.48714 1.33331 8.0013 1.33331H9.0013C11.5155 1.33331 12.7725 1.33331 13.5536 2.11436C14.3346 2.89541 14.3346 4.15249 14.3346 6.66665V9.33331C14.3346 11.8475 14.3346 13.1045 13.5536 13.8856C12.7725 14.6666 11.5155 14.6666 9.0013 14.6666H8.0013C5.48714 14.6666 4.23007 14.6666 3.44902 13.8856C2.66797 13.1045 2.66797 11.8475 2.66797 9.33331V6.66665Z" stroke="#141B34" stroke-width="1.5"/>
<path d="M6.53329 7.98271C6.24888 7.48679 6.11155 7.08184 6.02875 6.67136C5.90629 6.06427 6.18654 5.47124 6.65081 5.09284C6.84703 4.93291 7.07197 4.98756 7.188 5.19572L7.44996 5.66567C7.65759 6.03817 7.7614 6.22442 7.74081 6.42188C7.72022 6.61934 7.58021 6.78016 7.30019 7.1018L6.53329 7.98271ZM6.53329 7.98271C7.10895 8.98648 8.01235 9.89038 9.01729 10.4667M9.01729 10.4667C9.51321 10.7511 9.91816 10.8884 10.3286 10.9712C10.9357 11.0937 11.5288 10.8135 11.9072 10.3492C12.0671 10.153 12.0124 9.92803 11.8043 9.812L11.3343 9.55005C10.9618 9.34241 10.7756 9.2386 10.5781 9.25919C10.3807 9.27978 10.2198 9.41979 9.8982 9.69981L9.01729 10.4667Z" stroke="#141B34" stroke-width="1.5" stroke-linejoin="round"/>
<path d="M3.33464 4L1.66797 4M3.33464 8L1.66797 8M3.33464 12H1.66797" stroke="#141B34" stroke-width="1.5" stroke-linecap="round" stroke-linejoin="round"/>
</svg>
