<svg width="22" height="22" viewBox="0 0 22 22" fill="none" xmlns="http://www.w3.org/2000/svg">
<path d="M3.25 8.75C3.25 4.97876 3.25 3.09315 4.42157 1.92157C5.59315 0.75 7.47876 0.75 11.25 0.75H12.75C16.5212 0.75 18.4069 0.75 19.5784 1.92157C20.75 3.09315 20.75 4.97876 20.75 8.75V12.75C20.75 16.5212 20.75 18.4069 19.5784 19.5784C18.4069 20.75 16.5212 20.75 12.75 20.75H11.25C7.47876 20.75 5.59315 20.75 4.42157 19.5784C3.25 18.4069 3.25 16.5212 3.25 12.75V8.75Z" stroke="currentColor" stroke-width="1.5"/>
<path d="M9.59003 12.9908L9.17263 12.3677H9.17263L9.59003 12.9908ZM14.41 12.9908L14.8274 12.3677L14.41 12.9908ZM8.31674 15.3483L7.76836 15.8599H7.76836L8.31674 15.3483ZM15.6833 15.3483L15.1349 14.8366L15.6833 15.3483ZM9.59003 12.9908L10.0074 13.6139C11.2294 12.7954 12.7706 12.7954 13.9926 13.6139L14.41 12.9908L14.8274 12.3677C13.1003 11.2108 10.8997 11.2108 9.17263 12.3677L9.59003 12.9908ZM10.0404 16.25V17H13.9596V16.25V15.5H10.0404V16.25ZM8.31674 15.3483L8.86512 14.8366C8.79096 14.7572 8.76468 14.7047 8.75587 14.6821C8.7485 14.6633 8.75009 14.6581 8.75013 14.6577C8.75122 14.6465 8.76635 14.5712 8.89626 14.4281C9.17981 14.1159 9.613 13.8781 10.0074 13.6139L9.59003 12.9908L9.17263 12.3677C8.93828 12.5247 8.23275 12.9275 7.78582 13.4197C7.55049 13.6788 7.30244 14.0467 7.25716 14.5126C7.20857 15.0127 7.40655 15.4721 7.76836 15.8599L8.31674 15.3483ZM14.41 12.9908L13.9926 13.6139C14.387 13.8781 14.8202 14.1159 15.1037 14.4281C15.2336 14.5712 15.2488 14.6465 15.2499 14.6577C15.2499 14.6581 15.2515 14.6633 15.2441 14.6821C15.2353 14.7047 15.209 14.7572 15.1349 14.8366L15.6833 15.3483L16.2316 15.8599C16.5934 15.4721 16.7914 15.0127 16.7428 14.5126C16.6976 14.0467 16.4495 13.6788 16.2142 13.4197C15.7672 12.9275 15.0617 12.5247 14.8274 12.3677L14.41 12.9908ZM15.6833 15.3483L15.1349 14.8366C14.701 15.3017 14.34 15.5 13.9596 15.5V16.25V17C14.9529 17 15.6845 16.4463 16.2316 15.8599L15.6833 15.3483ZM8.31674 15.3483L7.76836 15.8599C8.31548 16.4463 9.04709 17 10.0404 17V16.25V15.5C9.66001 15.5 9.29902 15.3017 8.86512 14.8366L8.31674 15.3483ZM14 7.25H13.25C13.25 7.94036 12.6904 8.5 12 8.5V9.25V10C13.5188 10 14.75 8.76878 14.75 7.25H14ZM12 9.25V8.5C11.3096 8.5 10.75 7.94036 10.75 7.25H10H9.25C9.25 8.76878 10.4812 10 12 10V9.25ZM10 7.25H10.75C10.75 6.55964 11.3096 6 12 6V5.25V4.5C10.4812 4.5 9.25 5.73122 9.25 7.25H10ZM12 5.25V6C12.6904 6 13.25 6.55964 13.25 7.25H14H14.75C14.75 5.73122 13.5188 4.5 12 4.5V5.25Z" fill="currentColor"/>
<path d="M3.25 4.75L0.75 4.75M3.25 10.75L0.75 10.75M3.25 16.75H0.75" stroke="currentColor" stroke-width="1.5" stroke-linecap="round" stroke-linejoin="round"/>
</svg>
