<svg width="15" height="15" viewBox="0 0 15 15" fill="none" xmlns="http://www.w3.org/2000/svg">
<path d="M5.16699 9.16675C5.16699 7.28113 5.16699 6.33832 5.75278 5.75253C6.33857 5.16675 7.28137 5.16675 9.16699 5.16675L9.83366 5.16675C11.7193 5.16675 12.6621 5.16675 13.2479 5.75253C13.8337 6.33832 13.8337 7.28113 13.8337 9.16675V9.83341C13.8337 11.719 13.8337 12.6618 13.2479 13.2476C12.6621 13.8334 11.7193 13.8334 9.83366 13.8334H9.16699C7.28137 13.8334 6.33856 13.8334 5.75278 13.2476C5.16699 12.6618 5.16699 11.719 5.16699 9.83341L5.16699 9.16675Z" stroke="#717171" stroke-linecap="round" stroke-linejoin="round"/>
<path d="M10.4999 5.16667C10.4984 3.19527 10.4685 2.17414 9.8947 1.47495C9.78388 1.33993 9.66007 1.21612 9.52505 1.10531C8.78748 0.5 7.69166 0.5 5.5 0.5C3.30835 0.5 2.21252 0.5 1.47495 1.1053C1.33993 1.21612 1.21612 1.33993 1.10531 1.47495C0.5 2.21252 0.5 3.30834 0.5 5.5C0.5 7.69165 0.5 8.78748 1.1053 9.52505C1.21612 9.66007 1.33993 9.78388 1.47495 9.89469C2.17414 10.4685 3.19527 10.4984 5.16667 10.4999" stroke="#717171" stroke-linecap="round" stroke-linejoin="round"/>
</svg>
