<svg width="15" height="14" viewBox="0 0 15 14" fill="none" xmlns="http://www.w3.org/2000/svg">
<path d="M11.5833 4.74997C12.9551 4.79904 14.1199 5.82791 14.0825 7.20621C14.0737 7.52687 13.9495 7.92322 13.7011 8.71589C13.1032 10.6236 12.0984 12.2796 9.84744 12.6769C9.43367 12.75 8.96806 12.75 8.03686 12.75H6.79648C5.86527 12.75 5.39966 12.75 4.98589 12.6769C2.73493 12.2796 1.73012 10.6236 1.13224 8.71589C0.883811 7.92321 0.759596 7.52687 0.750879 7.20621C0.713414 5.82791 1.8782 4.79904 3.25 4.74997" stroke="#141B34" stroke-width="1.5" stroke-linecap="round"/>
<path d="M7.41667 8.08333L7.41667 0.75M7.41667 8.08333C6.94985 8.08333 6.07769 6.7538 5.75 6.41667M7.41667 8.08333C7.88348 8.08333 8.75565 6.7538 9.08333 6.41667" stroke="#141B34" stroke-width="1.5" stroke-linecap="round" stroke-linejoin="round"/>
</svg>
