<svg width="19" height="17" viewBox="0 0 19 17" fill="none" xmlns="http://www.w3.org/2000/svg">
<path fill-rule="evenodd" clip-rule="evenodd" d="M7.00783 1.224C7.92583 -0.408 10.2742 -0.408 11.191 1.224L17.887 13.128C18.787 14.7288 17.6314 16.704 15.7966 16.704H2.40343C0.567428 16.704 -0.588173 14.7288 0.311827 13.128L7.00783 1.224ZM10.2994 13.1052C10.2994 13.4235 10.173 13.7287 9.94796 13.9537C9.72291 14.1788 9.41769 14.3052 9.09943 14.3052C8.78117 14.3052 8.47594 14.1788 8.2509 13.9537C8.02586 13.7287 7.89943 13.4235 7.89943 13.1052C7.89943 12.7869 8.02586 12.4817 8.2509 12.2567C8.47594 12.0316 8.78117 11.9052 9.09943 11.9052C9.41769 11.9052 9.72291 12.0316 9.94796 12.2567C10.173 12.4817 10.2994 12.7869 10.2994 13.1052ZM9.09943 3.5052C8.78117 3.5052 8.47594 3.63163 8.2509 3.85667C8.02586 4.08172 7.89943 4.38694 7.89943 4.7052V8.3052C7.89943 8.62346 8.02586 8.92868 8.2509 9.15373C8.47594 9.37877 8.78117 9.5052 9.09943 9.5052C9.41769 9.5052 9.72291 9.37877 9.94796 9.15373C10.173 8.92868 10.2994 8.62346 10.2994 8.3052V4.7052C10.2994 4.38694 10.173 4.08172 9.94796 3.85667C9.72291 3.63163 9.41769 3.5052 9.09943 3.5052Z" fill="#3E78FF"/>
</svg>
