<svg width="102" height="16" viewBox="0 0 102 16" fill="none" xmlns="http://www.w3.org/2000/svg">
<g clip-path="url(#clip0_1064_105277)">
<path d="M9.15241 2.29616L10.3256 4.66196C10.4856 4.99129 10.9122 5.30717 11.2722 5.36766L13.3986 5.72388C14.7585 5.95239 15.0784 6.9471 14.0985 7.92837L12.4454 9.59518C12.1654 9.87747 12.0121 10.4219 12.0987 10.8117L12.572 12.875C12.9453 14.5082 12.0854 15.14 10.6522 14.2865L8.65913 13.0968C8.29917 12.8818 7.7059 12.8818 7.33928 13.0968L5.34616 14.2865C3.91965 15.14 3.05308 14.5015 3.42637 12.875L3.89966 10.8117C3.98631 10.4219 3.833 9.87747 3.55303 9.59518L1.89988 7.92837C0.926651 6.9471 1.23995 5.95239 2.5998 5.72388L4.72623 5.36766C5.07953 5.30717 5.50615 4.99129 5.66613 4.66196L6.83933 2.29616C7.47926 1.01245 8.51915 1.01245 9.15241 2.29616Z" fill="#FFD000" stroke="#FFD000" stroke-linecap="round" stroke-linejoin="round"/>
</g>
<path d="M31.8184 2.29628L32.9916 4.66208C33.1516 4.99141 33.5782 5.3073 33.9382 5.36779L36.0646 5.724C37.4245 5.95251 37.7444 6.94722 36.7645 7.92849L35.1114 9.5953C34.8314 9.87759 34.6781 10.422 34.7648 10.8118L35.238 12.8752C35.6113 14.5084 34.7514 15.1401 33.3183 14.2866L31.3251 13.097C30.9652 12.8819 30.3719 12.8819 30.0053 13.097L28.0122 14.2866C26.5857 15.1401 25.7191 14.5016 26.0924 12.8752L26.5657 10.8118C26.6523 10.422 26.499 9.87759 26.219 9.5953L24.5659 7.92849C23.5927 6.94722 23.906 5.95251 25.2658 5.724L27.3922 5.36779C27.7455 5.3073 28.1722 4.99141 28.3321 4.66208L29.5053 2.29628C30.1453 1.01257 31.1852 1.01257 31.8184 2.29628Z" fill="#FFD000" stroke="#FFD000" stroke-linecap="round" stroke-linejoin="round"/>
<path d="M53.1524 2.29628L54.3256 4.66208C54.4856 4.99141 54.9122 5.3073 55.2722 5.36779L57.3986 5.724C58.7585 5.95251 59.0784 6.94722 58.0985 7.92849L56.4454 9.5953C56.1654 9.87759 56.0121 10.422 56.0987 10.8118L56.572 12.8752C56.9453 14.5084 56.0854 15.1401 54.6522 14.2866L52.6591 13.097C52.2992 12.8819 51.7059 12.8819 51.3393 13.097L49.3462 14.2866C47.9197 15.1401 47.0531 14.5016 47.4264 12.8752L47.8997 10.8118C47.9863 10.422 47.833 9.87759 47.553 9.5953L45.8999 7.92849C44.9267 6.94722 45.24 5.95251 46.5998 5.724L48.7262 5.36779C49.0795 5.3073 49.5061 4.99141 49.6661 4.66208L50.8393 2.29628C51.4793 1.01257 52.5191 1.01257 53.1524 2.29628Z" fill="#FFD000" stroke="#FFD000" stroke-linecap="round" stroke-linejoin="round"/>
<path d="M74.4844 2.29628L75.6576 4.66208C75.8176 4.99141 76.2442 5.3073 76.6042 5.36779L78.7306 5.724C80.0905 5.95251 80.4105 6.94722 79.4306 7.92849L77.7774 9.5953C77.4974 9.87759 77.3441 10.422 77.4308 10.8118L77.9041 12.8752C78.2774 14.5084 77.4174 15.1401 75.9843 14.2866L73.9912 13.097C73.6312 12.8819 73.0379 12.8819 72.6713 13.097L70.6782 14.2866C69.2517 15.1401 68.3851 14.5016 68.7584 12.8752L69.2317 10.8118C69.3183 10.422 69.165 9.87759 68.8851 9.5953L67.2319 7.92849C66.2587 6.94722 66.572 5.95251 67.9318 5.724L70.0583 5.36779C70.4116 5.3073 70.8382 4.99141 70.9982 4.66208L72.1714 2.29628C72.8113 1.01257 73.8512 1.01257 74.4844 2.29628Z" fill="#FFD000" stroke="#FFD000" stroke-linecap="round" stroke-linejoin="round"/>
<path d="M95.8184 2.29628L96.9916 4.66208C97.1516 4.99141 97.5782 5.3073 97.9382 5.36779L100.065 5.724C101.424 5.95251 101.744 6.94722 100.765 7.92849L99.1114 9.5953C98.8314 9.87759 98.6781 10.422 98.7648 10.8118L99.238 12.8752C99.6113 14.5084 98.7514 15.1401 97.3183 14.2866L95.3251 13.097C94.9652 12.8819 94.3719 12.8819 94.0053 13.097L92.0122 14.2866C90.5857 15.1401 89.7191 14.5016 90.0924 12.8752L90.5657 10.8118C90.6523 10.422 90.499 9.87759 90.219 9.5953L88.5659 7.92849C87.5927 6.94722 87.906 5.95251 89.2658 5.724L91.3922 5.36779C91.7455 5.3073 92.1722 4.99141 92.3321 4.66208L93.5053 2.29628C94.1453 1.01257 95.1852 1.01257 95.8184 2.29628Z" fill="#FFD000" stroke="#FFD000" stroke-linecap="round" stroke-linejoin="round"/>
<defs>
<clipPath id="clip0_1064_105277">
<rect width="16" height="16" fill="white"/>
</clipPath>
</defs>
</svg>
