<svg width="14" height="13" viewBox="0 0 14 13" fill="none" xmlns="http://www.w3.org/2000/svg">
<path d="M1.25 0.75H11.9894C12.0863 0.75 12.1811 0.778137 12.2623 0.83099C12.3434 0.883844 12.4075 0.959139 12.4467 1.04772C12.4859 1.13631 12.4985 1.23437 12.483 1.32999C12.4675 1.4256 12.4246 1.51466 12.3594 1.58634L8.24975 6.10697C8.16609 6.199 8.11972 6.31892 8.11972 6.4433V9.98241C8.11972 10.0647 8.0994 10.1458 8.06056 10.2183C8.02172 10.2909 7.96556 10.3528 7.89708 10.3984L5.89707 11.7318C5.82177 11.782 5.73426 11.8108 5.64387 11.8152C5.55347 11.8195 5.46359 11.7993 5.3838 11.7566C5.304 11.7139 5.2373 11.6503 5.19079 11.5727C5.14429 11.495 5.11972 11.4062 5.11972 11.3157V6.4433C5.11972 6.31892 5.07336 6.199 4.98969 6.10697L0.88003 1.58634C0.814872 1.51466 0.771935 1.4256 0.756439 1.32999C0.740944 1.23437 0.753556 1.13631 0.792743 1.04772C0.83193 0.959139 0.896005 0.883844 0.97718 0.83099C1.05836 0.778137 1.15313 0.75 1.25 0.75V0.75Z" stroke="black" stroke-width="1.5" stroke-linecap="round" stroke-linejoin="round"/>
</svg>
