<svg width="20" height="20" viewBox="0 0 20 20" fill="none" xmlns="http://www.w3.org/2000/svg">
<path d="M1.66602 15C1.66602 13.7163 1.66602 13.0745 1.95496 12.6029C2.11663 12.3391 2.33846 12.1173 2.60229 11.9556C3.0738 11.6667 3.71565 11.6667 4.99935 11.6667C6.28305 11.6667 6.9249 11.6667 7.3964 11.9556C7.66024 12.1173 7.88206 12.3391 8.04374 12.6029C8.33268 13.0745 8.33268 13.7163 8.33268 15C8.33268 16.2837 8.33268 16.9256 8.04374 17.3971C7.88206 17.6609 7.66024 17.8827 7.3964 18.0444C6.9249 18.3333 6.28305 18.3333 4.99935 18.3333C3.71565 18.3333 3.0738 18.3333 2.60229 18.0444C2.33846 17.8827 2.11663 17.6609 1.95496 17.3971C1.66602 16.9256 1.66602 16.2837 1.66602 15Z" stroke="#727272" stroke-width="1.5"/>
<path d="M11.666 15C11.666 13.7163 11.666 13.0745 11.955 12.6029C12.1166 12.3391 12.3385 12.1173 12.6023 11.9556C13.0738 11.6667 13.7157 11.6667 14.9993 11.6667C16.283 11.6667 16.9249 11.6667 17.3964 11.9556C17.6602 12.1173 17.8821 12.3391 18.0437 12.6029C18.3327 13.0745 18.3327 13.7163 18.3327 15C18.3327 16.2837 18.3327 16.9256 18.0437 17.3971C17.8821 17.6609 17.6602 17.8827 17.3964 18.0444C16.9249 18.3333 16.283 18.3333 14.9993 18.3333C13.7157 18.3333 13.0738 18.3333 12.6023 18.0444C12.3385 17.8827 12.1166 17.6609 11.955 17.3971C11.666 16.9256 11.666 16.2837 11.666 15Z" stroke="#727272" stroke-width="1.5"/>
<path d="M1.66602 5C1.66602 3.71631 1.66602 3.07446 1.95496 2.60295C2.11663 2.33911 2.33846 2.11729 2.60229 1.95561C3.0738 1.66667 3.71565 1.66667 4.99935 1.66667C6.28305 1.66667 6.9249 1.66667 7.3964 1.95561C7.66024 2.11729 7.88206 2.33911 8.04374 2.60295C8.33268 3.07446 8.33268 3.71631 8.33268 5C8.33268 6.2837 8.33268 6.92555 8.04374 7.39706C7.88206 7.66089 7.66024 7.88272 7.3964 8.0444C6.9249 8.33334 6.28305 8.33334 4.99935 8.33334C3.71565 8.33334 3.0738 8.33334 2.60229 8.0444C2.33846 7.88272 2.11663 7.66089 1.95496 7.39706C1.66602 6.92555 1.66602 6.2837 1.66602 5Z" stroke="#727272" stroke-width="1.5"/>
<path d="M11.666 5C11.666 3.71631 11.666 3.07446 11.955 2.60295C12.1166 2.33911 12.3385 2.11729 12.6023 1.95561C13.0738 1.66667 13.7157 1.66667 14.9993 1.66667C16.283 1.66667 16.9249 1.66667 17.3964 1.95561C17.6602 2.11729 17.8821 2.33911 18.0437 2.60295C18.3327 3.07446 18.3327 3.71631 18.3327 5C18.3327 6.2837 18.3327 6.92555 18.0437 7.39706C17.8821 7.66089 17.6602 7.88272 17.3964 8.0444C16.9249 8.33334 16.283 8.33334 14.9993 8.33334C13.7157 8.33334 13.0738 8.33334 12.6023 8.0444C12.3385 7.88272 12.1166 7.66089 11.955 7.39706C11.666 6.92555 11.666 6.2837 11.666 5Z" stroke="#727272" stroke-width="1.5"/>
</svg>
