<svg width="20" height="20" viewBox="0 0 20 20" fill="none" xmlns="http://www.w3.org/2000/svg">
<path d="M10.8327 2.50193C10.4409 2.5 10.0249 2.5 9.58268 2.5C5.85073 2.5 3.98475 2.5 2.82538 3.65937C1.66602 4.81874 1.66602 6.68471 1.66602 10.4167C1.66602 14.1486 1.66602 16.0146 2.82538 17.174C3.98475 18.3333 5.85073 18.3333 9.58268 18.3333C13.3146 18.3333 15.1806 18.3333 16.34 17.174C17.4554 16.0586 17.4977 14.2892 17.4993 10.8333" stroke="#141B34" stroke-width="1.5" stroke-linecap="round"/>
<path d="M1.66602 11.7794C2.18186 11.7044 2.70338 11.6674 3.22578 11.6687C5.43573 11.622 7.59155 12.3106 9.30858 13.6117C10.901 14.8183 12.02 16.4789 12.4993 18.3332" stroke="#141B34" stroke-width="1.5" stroke-linejoin="round"/>
<path d="M17.5 14.0803C16.5205 13.5842 15.5073 13.3325 14.4885 13.3335C12.9454 13.3275 11.4179 13.8946 10 15.0002" stroke="#141B34" stroke-width="1.5" stroke-linejoin="round"/>
<path d="M14.166 3.74984C14.5756 3.32842 15.6658 1.6665 16.2493 1.6665M18.3327 3.74984C17.9231 3.32842 16.8329 1.6665 16.2493 1.6665M16.2493 1.6665V8.33317" stroke="#141B34" stroke-width="1.5" stroke-linecap="round" stroke-linejoin="round"/>
</svg>
