<svg width="20" height="20" viewBox="0 0 20 20" fill="none" xmlns="http://www.w3.org/2000/svg">
<path d="M15.8333 2.5H4.16667C3.24619 2.5 2.5 3.24619 2.5 4.16667V15.8333C2.5 16.7538 3.24619 17.5 4.16667 17.5H15.8333C16.7538 17.5 17.5 16.7538 17.5 15.8333V4.16667C17.5 3.24619 16.7538 2.5 15.8333 2.5Z" stroke="#101828" stroke-width="1.66667" stroke-linecap="round" stroke-linejoin="round"/>
<path d="M7.50065 9.16671C8.42113 9.16671 9.16732 8.42052 9.16732 7.50004C9.16732 6.57957 8.42113 5.83337 7.50065 5.83337C6.58018 5.83337 5.83398 6.57957 5.83398 7.50004C5.83398 8.42052 6.58018 9.16671 7.50065 9.16671Z" stroke="#101828" stroke-width="1.66667" stroke-linecap="round" stroke-linejoin="round"/>
<path d="M17.5 12.5L14.9283 9.92828C14.6158 9.61583 14.1919 9.44031 13.75 9.44031C13.3081 9.44031 12.8842 9.61583 12.5717 9.92828L5 17.5" stroke="#101828" stroke-width="1.66667" stroke-linecap="round" stroke-linejoin="round"/>
</svg>
