<svg width="19" height="19" viewBox="0 0 19 19" fill="none" xmlns="http://www.w3.org/2000/svg">
<path d="M0.75 8.58332C0.75 7.6181 0.951444 7.41666 1.91667 7.41666H16.25C17.2152 7.41666 17.4167 7.6181 17.4167 8.58332V9.58332C17.4167 10.5485 17.2152 10.75 16.25 10.75H1.91667C0.951444 10.75 0.75 10.5485 0.75 9.58332V8.58332Z" stroke="#141B34" stroke-width="1.5" stroke-linecap="round"/>
<path d="M0.75 1.91667C0.75 0.951444 0.951444 0.75 1.91667 0.75H16.25C17.2152 0.75 17.4167 0.951444 17.4167 1.91667V2.91667C17.4167 3.88189 17.2152 4.08333 16.25 4.08333H1.91667C0.951444 4.08333 0.75 3.88189 0.75 2.91667V1.91667Z" stroke="#141B34" stroke-width="1.5" stroke-linecap="round"/>
<path d="M0.75 15.25C0.75 14.2848 0.951444 14.0833 1.91667 14.0833H16.25C17.2152 14.0833 17.4167 14.2848 17.4167 15.25V16.25C17.4167 17.2152 17.2152 17.4167 16.25 17.4167H1.91667C0.951444 17.4167 0.75 17.2152 0.75 16.25V15.25Z" stroke="#141B34" stroke-width="1.5" stroke-linecap="round"/>
</svg>
