<svg width="11" height="11" viewBox="0 0 11 11" fill="none" xmlns="http://www.w3.org/2000/svg">
<path d="M3.99868 10.5L3.87337 8.74555C3.80599 7.80231 4.55304 7 5.49868 7C6.44433 7 7.19138 7.80231 7.124 8.74555L6.99868 10.5" stroke="currentColor"/>
<path d="M0.675696 6.10673C0.499186 4.95812 0.410931 4.38382 0.628083 3.87469C0.845235 3.36556 1.32701 3.01722 2.29057 2.32053L3.01049 1.8C4.20915 0.933333 4.80847 0.5 5.5 0.5C6.19153 0.5 6.79085 0.933333 7.98951 1.8L8.70943 2.32053C9.67299 3.01722 10.1548 3.36556 10.3719 3.87469C10.5891 4.38382 10.5008 4.95812 10.3243 6.10673L10.1738 7.08619C9.92357 8.71446 9.79845 9.5286 9.2145 10.0143C8.63055 10.5 7.77683 10.5 6.06941 10.5H4.93059C3.22317 10.5 2.36945 10.5 1.7855 10.0143C1.20155 9.5286 1.07643 8.71446 0.826213 7.08619L0.675696 6.10673Z" stroke="currentColor" stroke-linejoin="round"/>
</svg>
