<svg width="15" height="15" viewBox="0 0 15 15" fill="none" xmlns="http://www.w3.org/2000/svg">
<path d="M13.4151 7.75C13.4151 7.75 13.4167 7.41667 13.4167 7.08333C13.4167 4.09777 13.4167 2.60499 12.4892 1.6775C11.5617 0.75 10.0689 0.75 7.08333 0.75C4.09777 0.75 2.60499 0.75 1.6775 1.6775C0.75 2.60499 0.75 4.09777 0.75 7.08333C0.75 10.0689 0.75 11.5617 1.6775 12.4892C2.60499 13.4167 4.09777 13.4167 7.08333 13.4167C7.43711 13.4167 7.75 13.4151 7.75 13.4151" stroke="white" stroke-width="1.5" stroke-linecap="round"/>
<path d="M0.75 4.08337L13.4167 4.08337" stroke="white" stroke-width="1.5" stroke-linejoin="round"/>
<path d="M6.08268 10.0834H7.08268M3.41602 10.0834H4.08268M6.08268 7.41669H10.0827M3.41602 7.41669H4.08268" stroke="white" stroke-width="1.5" stroke-linecap="round" stroke-linejoin="round"/>
<path d="M9.41602 11.75H14.0827M11.7493 14.0834L11.7493 9.41669" stroke="white" stroke-width="1.5" stroke-linecap="round" stroke-linejoin="round"/>
</svg>
