<svg width="11" height="11" viewBox="0 0 11 11" fill="none" xmlns="http://www.w3.org/2000/svg">
<path d="M5.2491 0.5C3.74521 0.5 2.77009 1.5095 1.61686 1.87745C1.14794 2.02706 0.913485 2.10187 0.818601 2.20732C0.723716 2.31278 0.695931 2.46687 0.640361 2.77507C0.045717 6.073 1.34545 9.12199 4.44515 10.3087C4.77819 10.4362 4.94472 10.5 5.25074 10.5C5.55677 10.5 5.72328 10.4362 6.0563 10.3087C9.1558 9.12197 10.4543 6.07299 9.85949 2.77506C9.80389 2.46682 9.77609 2.3127 9.68119 2.20724C9.58628 2.10179 9.35184 2.02702 8.88296 1.87749C7.72927 1.50957 6.75305 0.5 5.2491 0.5Z" stroke="#141B34" stroke-linecap="round" stroke-linejoin="round"/>
</svg>
