<svg width="15" height="15" viewBox="0 0 15 15" fill="none" xmlns="http://www.w3.org/2000/svg">
<path d="M7.08018 0.75C5.075 0.75 3.77484 2.09599 2.23719 2.5866C1.61197 2.78609 1.29936 2.88583 1.17285 3.02643C1.04633 3.16704 1.00929 3.3725 0.935195 3.78342C0.142336 8.18066 1.87531 12.246 6.00824 13.8283C6.4523 13.9983 6.67433 14.0833 7.08237 14.0833C7.4904 14.0833 7.71242 13.9983 8.15645 13.8283C12.2891 12.246 14.0205 8.18065 13.2274 3.78342C13.1532 3.37243 13.1162 3.16693 12.9896 3.02632C12.8631 2.88572 12.5505 2.78603 11.9253 2.58666C10.3871 2.0961 9.08544 0.75 7.08018 0.75Z" stroke="#141B34" stroke-width="1.5" stroke-linecap="round" stroke-linejoin="round"/>
<path d="M7.08203 4.0835L7.08203 5.41683" stroke="#141B34" stroke-width="1.5" stroke-linecap="round"/>
</svg>
