<svg width="14" height="15" viewBox="0 0 14 15" fill="none" xmlns="http://www.w3.org/2000/svg">
<path d="M10.75 4.08331C11.2663 4.19037 11.6559 4.36904 11.969 4.66724C12.75 5.41119 12.75 6.60856 12.75 9.0033C12.75 11.398 12.75 12.5954 11.969 13.3394C11.1879 14.0833 9.93082 14.0833 7.41667 14.0833H6.08333C3.56918 14.0833 2.3121 14.0833 1.53105 13.3394C0.75 12.5954 0.75 11.398 0.75 9.0033C0.75 6.60856 0.75 5.41119 1.53105 4.66724C1.84412 4.36904 2.23367 4.19037 2.75 4.08331" stroke="#737373" stroke-width="1.5" stroke-linecap="round"/>
<path d="M6.76686 0.750349L6.75 8.75M6.76686 0.750349C6.65844 0.745858 6.54937 0.784607 6.45222 0.866611C5.84791 1.37671 4.75 2.70257 4.75 2.70257M6.76686 0.750349C6.86408 0.754377 6.96077 0.793171 7.04788 0.866722C7.65207 1.37691 8.75 2.70257 8.75 2.70257" stroke="#737373" stroke-width="1.5" stroke-linecap="round" stroke-linejoin="round"/>
</svg>
