<svg width="16" height="16" viewBox="0 0 16 16" fill="none" xmlns="http://www.w3.org/2000/svg">
<path d="M8.00065 1.33333L8.00293 12.9355C7.76267 12.935 7.52299 12.9888 7.34217 13.0968L5.34906 14.2864C3.91588 15.14 3.05598 14.5082 3.42927 12.875L3.90255 10.8116C3.98921 10.4218 3.83589 9.87742 3.55592 9.59514L1.90277 7.92833C0.922882 6.94706 1.24285 5.95235 2.6027 5.72384L4.72913 5.36762C5.08909 5.30713 5.51571 4.99125 5.67569 4.66192L6.84889 2.29612C7.16495 1.65543 7.58229 1.3345 8.00065 1.33333ZM8.00065 1.33333H8.00293M10.0007 13.8958L10.6551 14.2864C12.0816 15.14 12.9482 14.5015 12.5749 12.875L12.1016 10.8116C12.015 10.4218 12.1683 9.87742 12.4483 9.59514L14.1014 7.92833C15.0747 6.94706 14.7614 5.95235 13.4015 5.72384L11.2751 5.36762C10.9218 5.30713 10.4952 4.99125 10.3352 4.66192L10.0007 3.98734" stroke="#141B34" stroke-width="1.5" stroke-linecap="round" stroke-linejoin="round"/>
</svg>
