<svg width="17" height="19" viewBox="0 0 17 19" fill="none" xmlns="http://www.w3.org/2000/svg">
<path d="M11.6673 4.16667V3.5C11.6673 2.56658 11.6673 2.09987 11.4857 1.74335C11.3259 1.42975 11.0709 1.17478 10.7573 1.01499C10.4008 0.833336 9.93407 0.833336 9.00065 0.833336H7.66732C6.7339 0.833336 6.26719 0.833336 5.91067 1.01499C5.59706 1.17478 5.3421 1.42975 5.18231 1.74335C5.00065 2.09987 5.00065 2.56658 5.00065 3.5V4.16667M6.66732 8.75V12.9167M10.0007 8.75V12.9167M0.833984 4.16667H15.834M14.1673 4.16667V13.5C14.1673 14.9001 14.1673 15.6002 13.8948 16.135C13.6552 16.6054 13.2727 16.9878 12.8023 17.2275C12.2675 17.5 11.5674 17.5 10.1673 17.5H6.50065C5.10052 17.5 4.40045 17.5 3.86567 17.2275C3.39527 16.9878 3.01282 16.6054 2.77313 16.135C2.50065 15.6002 2.50065 14.9001 2.50065 13.5V4.16667" stroke="#EF3826" stroke-width="1.66667" stroke-linecap="round" stroke-linejoin="round"/>
</svg>
