<svg width="15" height="11" viewBox="0 0 15 11" fill="none" xmlns="http://www.w3.org/2000/svg">
<path d="M13.7793 4.77999C13.982 5.0642 14.0833 5.20631 14.0833 5.41667C14.0833 5.62702 13.982 5.76913 13.7793 6.05334C12.8686 7.33037 10.5428 10.0833 7.41667 10.0833C4.29052 10.0833 1.96473 7.33037 1.05403 6.05334C0.851342 5.76913 0.75 5.62702 0.75 5.41667C0.75 5.20631 0.851342 5.0642 1.05403 4.77999C1.96473 3.50296 4.29052 0.75 7.41667 0.75C10.5428 0.75 12.8686 3.50296 13.7793 4.77999Z" stroke="#141B34" stroke-width="1.5"/>
<path d="M9.41602 5.41699C9.41602 4.31242 8.52059 3.41699 7.41602 3.41699C6.31145 3.41699 5.41602 4.31242 5.41602 5.41699C5.41602 6.52156 6.31145 7.41699 7.41602 7.41699C8.52059 7.41699 9.41602 6.52156 9.41602 5.41699Z" stroke="#141B34" stroke-width="1.5"/>
</svg>
