<svg width="16" height="16" viewBox="0 0 16 16" fill="none" xmlns="http://www.w3.org/2000/svg">
<path d="M8.33268 5.83455C8.33268 5.74615 8.29756 5.66136 8.23505 5.59885C8.17254 5.53634 8.08775 5.50122 7.99935 5.50122C7.91094 5.50122 7.82616 5.53634 7.76365 5.59885C7.70113 5.66136 7.66602 5.74615 7.66602 5.83455V9.83455C7.66602 9.92296 7.70113 10.0077 7.76365 10.0703C7.82616 10.1328 7.91094 10.1679 7.99935 10.1679C8.08775 10.1679 8.17254 10.1328 8.23505 10.0703C8.29756 10.0077 8.33268 9.92296 8.33268 9.83455V5.83455Z" fill="#ED2A2A"/>
<path d="M7.99935 11.4906C8.18344 11.4906 8.33268 11.3414 8.33268 11.1573C8.33268 10.9732 8.18344 10.824 7.99935 10.824C7.81525 10.824 7.66602 10.9732 7.66602 11.1573C7.66602 11.3414 7.81525 11.4906 7.99935 11.4906Z" fill="#ED2A2A"/>
<path d="M12.4279 13.9559H3.5899C3.30421 13.9558 3.02334 13.8823 2.77426 13.7424C2.52518 13.6025 2.31624 13.4009 2.16751 13.157C2.01878 12.9131 1.93524 12.635 1.92492 12.3495C1.91459 12.064 1.97783 11.7806 2.10856 11.5266L6.5279 2.94727C6.66814 2.6753 6.88055 2.44719 7.14184 2.28793C7.40314 2.12868 7.70323 2.04443 8.00923 2.04443C8.31523 2.04443 8.61533 2.12868 8.87662 2.28793C9.13792 2.44719 9.35033 2.6753 9.49057 2.94727L13.9099 11.5266C14.0407 11.7807 14.1039 12.0641 14.0935 12.3497C14.0832 12.6352 13.9996 12.9133 13.8508 13.1573C13.702 13.4012 13.4929 13.6028 13.2438 13.7426C12.9946 13.8825 12.7136 13.956 12.4279 13.9559ZM8.00923 2.70994C7.82513 2.70841 7.64426 2.75843 7.4871 2.85433C7.32994 2.95023 7.20274 3.08819 7.1199 3.25261L2.70123 11.8319C2.62286 11.9843 2.58497 12.1543 2.59119 12.3256C2.5974 12.4968 2.64753 12.6636 2.73674 12.8099C2.82596 12.9562 2.95128 13.0771 3.10068 13.1611C3.25007 13.245 3.41853 13.2892 3.5899 13.2893H12.4279C12.5993 13.2893 12.7679 13.2452 12.9174 13.1613C13.0668 13.0774 13.1923 12.9565 13.2815 12.8102C13.3708 12.6639 13.421 12.497 13.4273 12.3257C13.4335 12.1544 13.3956 11.9844 13.3172 11.8319L8.89856 3.25261C8.81572 3.08819 8.68853 2.95023 8.53136 2.85433C8.3742 2.75843 8.19334 2.70841 8.00923 2.70994Z" fill="#ED2A2A"/>
</svg>
