<svg width="11" height="14" viewBox="0 0 11 14" fill="none" xmlns="http://www.w3.org/2000/svg">
<path d="M2.83543 7.19905H2.52946C1.5403 7.19905 1.04572 7.19905 0.834906 6.87296C0.624092 6.54686 0.824959 6.09253 1.22669 5.18388L2.43445 2.45215C2.79971 1.626 2.98234 1.21292 3.33665 0.981461C3.69095 0.75 4.14062 0.75 5.03998 0.75H6.43293C7.52546 0.75 8.07173 0.75 8.27776 1.1069C8.4838 1.4638 8.21277 1.94058 7.67072 2.89415L6.95614 4.15125C6.68667 4.6253 6.55193 4.86232 6.55381 5.05635C6.55625 5.3085 6.69036 5.54079 6.90693 5.66803C7.07357 5.76593 7.34514 5.76593 7.88828 5.76593C8.57488 5.76593 8.91818 5.76593 9.09698 5.88478C9.32929 6.03919 9.45086 6.31546 9.40825 6.59212C9.37546 6.80506 9.14453 7.06042 8.68267 7.57113L4.99257 11.6516C4.2678 12.453 3.9054 12.8537 3.66205 12.7269C3.41869 12.6001 3.53555 12.0714 3.76929 11.0141L4.22711 8.94307C4.40509 8.13798 4.49407 7.73543 4.28006 7.46724C4.06605 7.19905 3.65585 7.19905 2.83543 7.19905Z" stroke="#141B34" stroke-width="1.5" stroke-linejoin="round"/>
</svg>
