<svg width="14" height="15" viewBox="0 0 14 15" fill="none" xmlns="http://www.w3.org/2000/svg">
<path d="M7.8285 13.6613C7.53937 13.932 7.15293 14.0833 6.75075 14.0833C6.34856 14.0833 5.96212 13.932 5.67299 13.6613C3.02535 11.1673 -0.522825 8.38128 1.20751 4.33644C2.14309 2.14944 4.3889 0.75 6.75075 0.75C9.11259 0.75 11.3584 2.14944 12.294 4.33644C14.0221 8.37618 10.4827 11.1759 7.8285 13.6613Z" stroke="#141B34" stroke-width="1.5"/>
<path d="M9.08268 6.75033C9.08268 8.03899 8.03801 9.08366 6.74935 9.08366C5.46068 9.08366 4.41602 8.03899 4.41602 6.75033C4.41602 5.46166 5.46068 4.41699 6.74935 4.41699C8.03801 4.41699 9.08268 5.46166 9.08268 6.75033Z" stroke="#141B34" stroke-width="1.5"/>
</svg>