<svg width="24" height="24" viewBox="0 0 24 24" fill="none" xmlns="http://www.w3.org/2000/svg">
<path d="M14.5762 19.5C14.8099 19.5 14.9998 19.6891 15 19.9229C15 19.9735 14.9916 20.0244 14.9727 20.0713C14.5153 21.199 13.3565 22 12 22C10.6435 22 9.48568 21.1989 9.02832 20.0713C9.00927 20.0243 9 19.9736 9 19.9229C9.00021 19.6891 9.19007 19.5 9.42383 19.5H14.5762ZM12 2C13.2535 2 14.2703 3.01607 14.2705 4.26953V4.37402C14.2904 4.38083 14.3103 4.38755 14.3301 4.39453C13.8072 5.12971 13.5 6.02916 13.5 7C13.5001 9.48516 15.5148 11.5 18 11.5C18.1767 11.5 18.3511 11.4895 18.5225 11.4697L18.6865 12.915C18.7671 13.6247 19.0671 14.3015 19.5527 14.8721C20.6495 16.1608 19.6056 18 17.7773 18H6.22266C4.39444 17.9998 3.35127 16.1608 4.44824 14.8721C4.9338 14.3016 5.23295 13.6246 5.31348 12.915L5.76074 8.97559C6.00187 6.85103 7.58807 5.10755 9.73047 4.37402V4.26953C9.73069 3.0161 10.7465 2.00006 12 2Z" fill="#4C4958"/>
<rect x="12" y="1" width="11" height="11" rx="5.5" fill="#34A9FF"/>
<rect x="12" y="1" width="11" height="11" rx="5.5" stroke="#F8F8F8" stroke-width="1.49708"/>
<path d="M15.3296 8.12109V7.28857L17.417 4H18.1348V5.15234H17.71L16.394 7.23486V7.27393H19.3604V8.12109H15.3296ZM17.7295 9V7.86719L17.749 7.49854V4H18.7402V9H17.7295Z" fill="white"/>
</svg>