<svg width="8" height="8" viewBox="0 0 8 8" fill="none" xmlns="http://www.w3.org/2000/svg">
<path d="M1.03067 9.15492e-05C0.754528 9.17389e-05 0.53067 0.223949 0.53067 0.500092C0.53067 0.776234 0.754528 1.00009 1.03067 1.00009L1.03067 0.500092L1.03067 9.15492e-05ZM7.39463 0.500092L7.89463 0.500091L7.89463 9.12753e-05L7.39463 9.16124e-05L7.39463 0.500092ZM6.89463 6.86405C6.89463 7.1402 7.11849 7.36405 7.39463 7.36405C7.67077 7.36405 7.89463 7.1402 7.89463 6.86405H7.39463L6.89463 6.86405ZM7.30624 1.29559L7.6598 0.942034L6.95269 0.234927L6.59914 0.58848L6.95269 0.942034L7.30624 1.29559ZM0.146786 7.04083C-0.0484757 7.23609 -0.0484755 7.55267 0.146786 7.74794C0.342049 7.9432 0.658631 7.9432 0.853893 7.74794L0.50034 7.39438L0.146786 7.04083ZM1.03067 0.500092L1.03067 1.00009L7.39463 1.00009L7.39463 0.500092L7.39463 9.16124e-05L1.03067 9.15492e-05L1.03067 0.500092ZM7.39463 0.500092L6.89463 0.500091V6.86405L7.39463 6.86405H7.89463L7.89463 0.500091L7.39463 0.500092ZM6.95269 0.942034L6.59914 0.58848L0.146786 7.04083L0.50034 7.39438L0.853893 7.74794L7.30624 1.29559L6.95269 0.942034Z" fill="currentColor"/>
</svg>
