<svg width="22" height="22" viewBox="0 0 22 22" fill="none" xmlns="http://www.w3.org/2000/svg">
<path d="M9.75 0.75V12.75C9.75 16.0593 9.05933 16.75 5.75 16.75H1.75" stroke="currentColor" stroke-width="1.5" stroke-linejoin="round"/>
<path d="M3.75 10.75L9.75 10.75" stroke="currentColor" stroke-width="1.5" stroke-linejoin="round"/>
<path d="M16.25 14.75L17.25 14.75M16.25 17.75L17.25 17.75" stroke="currentColor" stroke-width="1.5" stroke-linecap="round" stroke-linejoin="round"/>
<path d="M12.75 3.75V20.75H3.029C1.78789 20.75 1.16734 20.75 0.881338 20.3246C0.595337 19.8992 0.806105 19.2897 1.22764 18.0707L6.53212 2.73107C6.86324 1.7735 7.02881 1.29472 7.40029 1.02236C7.77177 0.75 8.25923 0.75 9.23415 0.75H9.87718C11.2314 0.75 11.9086 0.75 12.3293 1.18934C12.75 1.62868 12.75 2.33579 12.75 3.75Z" stroke="currentColor" stroke-width="1.5" stroke-linecap="round" stroke-linejoin="round"/>
<path d="M12.75 8.75L16.5397 9.93427C18.5693 10.5685 19.5841 10.8857 20.1671 11.6786C20.75 12.4715 20.75 13.5347 20.75 15.6611V18.75C20.75 19.6928 20.75 20.1642 20.4571 20.4571C20.1642 20.75 19.6928 20.75 18.75 20.75H12.75" stroke="currentColor" stroke-width="1.5" stroke-linecap="round" stroke-linejoin="round"/>
</svg>
