<svg width="15" height="12" viewBox="0 0 15 12" fill="none" xmlns="http://www.w3.org/2000/svg">
<path d="M1.40368 6.60917C0.922787 7.47734 0.788365 8.55185 0.750791 9.08472C0.737842 9.26836 0.885631 9.41667 1.06995 9.41667H2.07115M1.40368 6.60917C1.40368 4.5127 2.01396 1.98269 3.23452 0.890812C3.3421 0.794575 3.48416 0.75 3.62858 0.75H6.82452C7.21076 0.75 7.59625 0.828067 7.9202 1.03815C8.7193 1.55636 9.92681 2.60314 10.9526 4.20956C11.0374 4.34239 11.1641 4.4432 11.3123 4.49696C11.9028 4.71102 12.5602 5.00801 12.9809 5.20596C13.2649 5.33962 13.4911 5.57272 13.5987 5.86733C13.8949 6.67864 14.0621 7.58387 14.0833 9.08295C14.0859 9.26703 13.9362 9.41667 13.7519 9.41667H12.7507M1.40368 6.60917C1.64423 6.17489 1.97148 5.79224 2.41667 5.55485M10.0808 9.41667H4.74103" stroke="#141B34" stroke-width="1.5" stroke-linecap="round" stroke-linejoin="round"/>
<path d="M4.75065 9.41683C4.75065 10.1532 4.1537 10.7502 3.41732 10.7502C2.68094 10.7502 2.08398 10.1532 2.08398 9.41683C2.08398 8.68045 2.68094 8.0835 3.41732 8.0835C4.1537 8.0835 4.75065 8.68045 4.75065 9.41683Z" stroke="#141B34" stroke-width="1.5"/>
<path d="M12.7507 9.41683C12.7507 10.1532 12.1537 10.7502 11.4173 10.7502C10.6809 10.7502 10.084 10.1532 10.084 9.41683C10.084 8.68045 10.6809 8.0835 11.4173 8.0835C12.1537 8.0835 12.7507 8.68045 12.7507 9.41683Z" stroke="#141B34" stroke-width="1.5"/>
<path d="M11.084 4.41667C9.08398 3.75 6.75065 3.41667 4.08398 3.75C4.08398 2.41667 4.75065 1.08333 5.08398 0.75" stroke="#141B34" stroke-width="1.5" stroke-linecap="round" stroke-linejoin="round"/>
<path d="M4.75 5.0835H5.41667" stroke="#141B34" stroke-width="1.5" stroke-linecap="round" stroke-linejoin="round"/>
</svg>
