<svg width="17" height="17" viewBox="0 0 17 17" fill="none" xmlns="http://www.w3.org/2000/svg">
<path d="M2.11621 10.0576H4.93359C5.82825 10.0578 6.5498 10.7812 6.5498 11.6924V14.5332C6.54974 15.437 5.8272 16.1659 4.93359 16.166H2.11621C1.22975 16.1658 0.500065 15.4357 0.5 14.5332V11.6924C0.5 10.7825 1.2287 10.0579 2.11621 10.0576ZM11.7334 10.0576H14.5498C15.4375 10.0576 16.167 10.7824 16.167 11.6924V14.5332C16.1669 15.4358 15.4365 16.166 14.5498 16.166H11.7334C10.8397 16.166 10.1173 15.4371 10.1172 14.5332V11.6924C10.1172 10.7811 10.8386 10.0576 11.7334 10.0576ZM2.11621 0.5H4.93359C5.82698 0.500142 6.5496 1.22911 6.5498 2.13379V4.97461C6.5498 5.88556 5.8285 6.60826 4.93359 6.6084H2.11621C1.22844 6.60815 0.5 5.8842 0.5 4.97461V2.13379C0.500191 1.28689 1.14168 0.59248 1.95215 0.508789L2.11621 0.5ZM11.7334 0.5H14.5498C15.4363 0.5 16.1668 1.23031 16.167 2.13379V4.97461C16.167 5.88436 15.4378 6.6084 14.5498 6.6084H11.7334C10.8384 6.60839 10.1172 5.88564 10.1172 4.97461V2.13379C10.1174 1.28547 10.7526 0.592056 11.5684 0.508789L11.7334 0.5Z" stroke="currentColor"/>
</svg>
