<svg width="22" height="22" viewBox="0 0 22 22" fill="none" xmlns="http://www.w3.org/2000/svg">
<ellipse cx="14.25" cy="9.75" rx="6.5" ry="2" stroke="currentColor" stroke-width="1.5"/>
<path d="M20.75 14.25C20.75 15.3546 17.8399 16.25 14.25 16.25C10.6601 16.25 7.75 15.3546 7.75 14.25" stroke="currentColor" stroke-width="1.5"/>
<path d="M20.75 9.75V18.55C20.75 19.765 17.8399 20.75 14.25 20.75C10.6601 20.75 7.75 19.765 7.75 18.55V9.75" stroke="currentColor" stroke-width="1.5"/>
<ellipse cx="7.25" cy="2.75" rx="6.5" ry="2" stroke="currentColor" stroke-width="1.5"/>
<path d="M4.75 9.75C2.85819 9.51978 1.11991 8.92454 0.75 7.75M4.75 14.75C2.85819 14.5198 1.11991 13.9245 0.75 12.75" stroke="currentColor" stroke-width="1.5" stroke-linecap="round"/>
<path d="M4.75 19.75C2.85819 19.5198 1.11991 18.9245 0.75 17.75L0.75 2.75" stroke="currentColor" stroke-width="1.5" stroke-linecap="round"/>
<path d="M13.75 4.75V2.75" stroke="currentColor" stroke-width="1.5" stroke-linecap="round"/>
</svg>
