<svg width="17" height="17" viewBox="0 0 17 17" fill="none" xmlns="http://www.w3.org/2000/svg">
<path d="M5.4125 1.00467C5.3621 0.973491 5.3216 0.928621 5.29573 0.875294C5.26986 0.821968 5.25969 0.762384 5.26641 0.703497C5.27313 0.64461 5.29645 0.588847 5.33366 0.542714C5.37087 0.496581 5.42043 0.461982 5.47656 0.442952C6.61641 0.0502096 7.8294 -0.0837973 9.02749 0.0506598C10.2256 0.185117 11.3787 0.584664 12.4031 1.2203C12.4402 1.2437 12.472 1.27466 12.4964 1.31117C12.5207 1.34767 12.5371 1.3889 12.5445 1.43216C12.5519 1.47542 12.5501 1.51975 12.5392 1.56226C12.5283 1.60477 12.5085 1.64451 12.4813 1.67889C11.5767 2.83481 10.4674 3.81462 9.20859 4.56951C8.19176 3.14159 6.90143 1.92987 5.4125 1.00467ZM8.09297 5.15623C6.95194 3.59928 5.45083 2.34183 3.71797 1.49139C3.66835 1.46729 3.61317 1.45697 3.55819 1.46151C3.50322 1.46604 3.45047 1.48527 3.40547 1.51717C2.00264 2.52061 0.953987 3.94289 0.410157 5.57967C0.396494 5.62152 0.391829 5.66579 0.396467 5.70957C0.401105 5.75335 0.414941 5.79566 0.43707 5.83372C0.459198 5.87178 0.489119 5.90473 0.524871 5.93043C0.560624 5.95612 0.601401 5.97396 0.644532 5.9828C1.45997 6.15857 2.29162 6.24812 3.12578 6.24998C4.84134 6.25091 6.53647 5.87766 8.09297 5.15623ZM16.2023 7.24139C16.0037 5.4293 15.2003 3.73698 13.9219 2.43748C13.8907 2.40582 13.8531 2.38116 13.8117 2.36517C13.7702 2.34917 13.7259 2.34219 13.6815 2.34471C13.6371 2.34722 13.5938 2.35917 13.5544 2.37974C13.5151 2.40032 13.4805 2.42906 13.4531 2.46405C12.4643 3.72372 11.2548 4.79318 9.88359 5.6203C10.312 6.36246 10.6666 7.14485 10.9422 7.95623C12.0615 7.6528 13.2161 7.49938 14.3758 7.49998C14.8717 7.5 15.3673 7.52791 15.8602 7.58358C15.906 7.58815 15.9523 7.58253 15.9958 7.5671C16.0392 7.55167 16.0787 7.52683 16.1114 7.49435C16.1441 7.46187 16.1692 7.42256 16.1849 7.37923C16.2007 7.3359 16.2066 7.28963 16.2023 7.24373V7.24139ZM11.2875 9.15545C11.5191 10.1405 11.6357 11.149 11.6352 12.1609C11.6347 13.1295 11.527 14.095 11.3141 15.0398C11.3004 15.0977 11.3036 15.1583 11.3232 15.2144C11.3428 15.2705 11.378 15.3199 11.4247 15.3567C11.4713 15.3935 11.5276 15.4163 11.5867 15.4223C11.6458 15.4283 11.7055 15.4173 11.7586 15.3906C12.9435 14.7962 13.9654 13.9215 14.7356 12.8426C15.5058 11.7636 16.001 10.513 16.1781 9.1992C16.1835 9.15823 16.1807 9.11661 16.1698 9.07674C16.159 9.03687 16.1403 8.99954 16.115 8.96692C16.0896 8.9343 16.0581 8.90703 16.0221 8.88669C15.9861 8.86635 15.9465 8.85334 15.9055 8.84842C14.3605 8.64958 12.7916 8.75575 11.2875 9.16092V9.15545ZM9.75313 8.33905C9.50123 7.60032 9.177 6.88827 8.78516 6.21326C7.01923 7.06164 5.08492 7.50143 3.12578 7.49998C2.21 7.50003 1.29671 7.40446 0.400782 7.21483C0.357555 7.20571 0.312886 7.20586 0.269721 7.21527C0.226556 7.22468 0.185877 7.24313 0.150367 7.26941C0.114856 7.29569 0.0853223 7.32921 0.0637126 7.36774C0.0421028 7.40627 0.0289087 7.44895 0.0250005 7.49295C0.00885469 7.70129 0.000521385 7.91196 5.51347e-07 8.12498C-0.000409837 9.23753 0.228284 10.3382 0.671836 11.3585C1.11539 12.3788 1.76429 13.2969 2.57813 14.0555C2.61245 14.0869 2.65338 14.1103 2.69791 14.1239C2.74244 14.1375 2.78945 14.141 2.83551 14.1341C2.88156 14.1272 2.92549 14.1102 2.96409 14.0841C3.00269 14.0581 3.03498 14.0237 3.05859 13.9836C4.58345 11.3962 6.94485 9.40598 9.75313 8.34139V8.33905ZM4.03906 14.7851C4.01853 14.821 4.00531 14.8606 4.00016 14.9016C3.99502 14.9426 3.99806 14.9842 4.0091 15.024C4.02015 15.0638 4.03898 15.101 4.0645 15.1335C4.09003 15.166 4.12174 15.1931 4.15781 15.2133C5.79166 16.1293 7.69208 16.452 9.53672 16.1265C9.5916 16.117 9.64284 16.0926 9.68496 16.0562C9.72707 16.0197 9.75847 15.9725 9.77578 15.9195C10.1787 14.7081 10.3845 13.4399 10.3852 12.1633C10.3853 11.2838 10.2873 10.407 10.093 9.5492C7.53305 10.5466 5.39506 12.3957 4.03906 14.7851Z" fill="currentColor"/>
</svg>
