<svg width="19" height="19" viewBox="0 0 19 19" fill="none" xmlns="http://www.w3.org/2000/svg">
<path d="M11.584 13.25C10.9177 13.7686 10.0425 14.0833 9.08398 14.0833C8.12545 14.0833 7.25025 13.7686 6.58398 13.25" stroke="currentColor" stroke-width="1.5" stroke-linecap="round"/>
<path d="M1.04283 10.0945C0.748643 8.1802 0.601551 7.22303 0.963471 6.37448C1.32539 5.52593 2.12835 4.94536 3.73428 3.78422L4.93416 2.91667C6.93191 1.47222 7.93078 0.75 9.08333 0.75C10.2359 0.75 11.2348 1.47222 13.2325 2.91667L14.4324 3.78422C16.0383 4.94536 16.8413 5.52593 17.2032 6.37448C17.5651 7.22303 17.418 8.1802 17.1238 10.0945L16.873 11.727C16.4559 14.4408 16.2474 15.7977 15.2742 16.6072C14.3009 17.4167 12.8781 17.4167 10.0323 17.4167H8.13432C5.28861 17.4167 3.86576 17.4167 2.8925 16.6072C1.91924 15.7977 1.71072 14.4408 1.29369 11.727L1.04283 10.0945Z" stroke="currentColor" stroke-width="1.5" stroke-linejoin="round"/>
</svg>
