<svg width="18" height="22" viewBox="0 0 18 22" fill="none" xmlns="http://www.w3.org/2000/svg">
<path d="M0.75 17.3958V6.80426C0.75 3.95025 0.75 2.52325 1.62868 1.63663C2.50736 0.75 3.92157 0.75 6.75 0.75H10.75C13.5784 0.75 14.9926 0.75 15.8713 1.63663C16.75 2.52325 16.75 3.95025 16.75 6.80426V17.3958C16.75 18.9075 16.75 19.6633 16.288 19.9608C15.5331 20.4471 14.3661 19.4274 13.7791 19.0573C13.2941 18.7514 13.0517 18.5985 12.7825 18.5897C12.4917 18.5801 12.2449 18.7268 11.7209 19.0573L9.81 20.2624C9.29454 20.5874 9.03679 20.75 8.75 20.75C8.46321 20.75 8.20546 20.5874 7.69 20.2624L5.77913 19.0573C5.29415 18.7514 5.05166 18.5985 4.78253 18.5897C4.49172 18.5801 4.24493 18.7268 3.72087 19.0573C3.13395 19.4274 1.96687 20.4471 1.21195 19.9608C0.75 19.6633 0.75 18.9075 0.75 17.3958Z" stroke="#141B34" stroke-width="1.5" stroke-linecap="round" stroke-linejoin="round"/>
<path d="M7.75 9.75H4.75" stroke="#141B34" stroke-width="1.5" stroke-linecap="round" stroke-linejoin="round"/>
<path d="M10.75 5.75L4.75 5.75" stroke="#141B34" stroke-width="1.5" stroke-linecap="round" stroke-linejoin="round"/>
</svg>
