<svg width="20" height="22" viewBox="0 0 20 22" fill="none" xmlns="http://www.w3.org/2000/svg">
<path d="M9.75 0.75C14.6206 0.75 18.75 4.78298 18.75 9.67577C18.75 14.6465 14.5533 18.1347 10.677 20.5067C10.3945 20.6662 10.075 20.75 9.75 20.75C9.42495 20.75 9.10549 20.6662 8.823 20.5067C4.9539 18.1116 0.75 14.6637 0.75 9.67577C0.75 4.78298 4.87944 0.75 9.75 0.75Z" stroke="currentColor" stroke-width="1.5"/>
<path d="M10.4411 6.32767L11.145 7.74715C11.241 7.94475 11.4969 8.13428 11.7129 8.17057L12.9888 8.3843C13.8047 8.52141 13.9967 9.11824 13.4087 9.707L12.4168 10.7071C12.2489 10.8765 12.1569 11.2031 12.2089 11.437L12.4928 12.675C12.7168 13.6549 12.2009 14.034 11.341 13.5218L10.1451 12.8081C9.92911 12.679 9.57315 12.679 9.35318 12.8081L8.15731 13.5218C7.3014 14.034 6.78146 13.6509 7.00543 12.675L7.2894 11.437C7.3414 11.2031 7.24941 10.8765 7.08143 10.7071L6.08954 9.707C5.5056 9.11824 5.69358 8.52141 6.50949 8.3843L7.78535 8.17057C7.99732 8.13428 8.2533 7.94475 8.34929 7.74715L9.05321 6.32767C9.43717 5.55744 10.0611 5.55744 10.4411 6.32767Z" stroke="currentColor" stroke-width="1.5" stroke-linecap="round" stroke-linejoin="round"/>
</svg>
