<svg width="16" height="16" viewBox="0 0 16 16" fill="none" xmlns="http://www.w3.org/2000/svg">
<path d="M9.0785 14.2446C8.78937 14.5153 8.40293 14.6667 8.00075 14.6667C7.59856 14.6667 7.21212 14.5153 6.92299 14.2446C4.27535 11.7506 0.727175 8.96461 2.45751 4.91977C3.39309 2.73277 5.6389 1.33333 8.00075 1.33333C10.3626 1.33333 12.6084 2.73277 13.544 4.91977C15.2721 8.95951 11.7327 11.7592 9.0785 14.2446Z" stroke="#141B34" stroke-width="1.5"/>
<path d="M10.3327 7.33333C10.3327 8.622 9.28801 9.66667 7.99935 9.66667C6.71068 9.66667 5.66602 8.622 5.66602 7.33333C5.66602 6.04467 6.71068 5 7.99935 5C9.28801 5 10.3327 6.04467 10.3327 7.33333Z" stroke="#141B34" stroke-width="1.5"/>
</svg>
