<svg width="75" height="73" viewBox="0 0 75 73" fill="none" xmlns="http://www.w3.org/2000/svg">
<rect width="75" height="72.7371" rx="12.931" fill="#DEDEDE"/>
<path d="M19.3965 34.277L19.3965 19.3964L29.4525 19.3964V22.1848C29.4525 27.0288 28.6987 30.3357 27.1912 32.1052C25.9497 33.5531 23.9456 34.277 21.1789 34.277L19.3965 34.277ZM33.8213 53.3403C25.8547 53.3403 19.3965 46.8821 19.3965 38.9155L30.7423 38.9155C32.5277 38.9155 33.975 37.4681 33.975 35.6827V31.3966C33.975 29.6112 35.4224 28.1639 37.2078 28.1639L37.6857 28.1639C39.4711 28.1639 40.9184 29.6112 40.9184 31.3966V35.6827C40.9184 37.4681 42.3658 38.9155 44.1512 38.9155L55.5502 38.9155C55.5502 46.8821 49.092 53.3403 41.1253 53.3403L37.4733 53.3403L33.8213 53.3403ZM53.0229 34.3038C49.3516 34.3038 46.8598 32.1589 45.5474 27.869C45.0508 26.2245 44.8025 24.1063 44.8025 21.5145V19.3964L55.6034 19.3964V34.3038L53.0229 34.3038Z" fill="white"/>
</svg>
