<svg width="17" height="17" viewBox="0 0 17 17" fill="none" xmlns="http://www.w3.org/2000/svg">
<path d="M10.75 12.9375C10.6887 14.4808 9.40258 15.7912 7.6797 15.749C7.27887 15.7392 6.78344 15.5995 5.7926 15.32C3.40801 14.6474 1.33796 13.517 0.841296 10.9846C0.75 10.5191 0.75 9.99532 0.75 8.94771L0.75 7.55229C0.75 6.50468 0.75 5.98087 0.841296 5.51538C1.33796 2.98304 3.40801 1.85263 5.7926 1.18002C6.78345 0.900537 7.27887 0.760795 7.6797 0.750989C9.40257 0.708841 10.6887 2.01923 10.75 3.56251" stroke="currentColor" stroke-width="1.5" stroke-linecap="round"/>
<path d="M15.7487 8.25008H6.58203M15.7487 8.25008C15.7487 7.66656 14.0868 6.57636 13.6654 6.16675M15.7487 8.25008C15.7487 8.8336 14.0868 9.92381 13.6654 10.3334" stroke="currentColor" stroke-width="1.5" stroke-linecap="round" stroke-linejoin="round"/>
</svg>
