<svg width="17" height="16" viewBox="0 0 17 16" fill="none" xmlns="http://www.w3.org/2000/svg">
<path d="M10.6885 1.50919L5.1446 4.17043C4.71792 4.37524 4.26203 4.42655 3.79729 4.32244C3.49314 4.25431 3.34105 4.22024 3.21859 4.20626C1.69786 4.0326 0.75 5.23619 0.75 6.62022V7.37978C0.75 8.76381 1.69786 9.9674 3.21859 9.79374C3.34105 9.77976 3.49315 9.74569 3.79729 9.67756C4.26203 9.57346 4.71793 9.62475 5.1446 9.82957L10.6885 12.4908C11.9612 13.1017 12.5975 13.4072 13.307 13.1691C14.0164 12.931 14.26 12.4201 14.747 11.3984C16.0843 8.59263 16.0843 5.40737 14.747 2.60164C14.26 1.57988 14.0164 1.06901 13.307 0.830918C12.5975 0.59283 11.9612 0.898284 10.6885 1.50919Z" stroke="currentColor" stroke-width="1.5" stroke-linecap="round" stroke-linejoin="round"/>
<path d="M9.08203 11.9998V12.4165C9.08203 13.4866 9.08203 14.0216 8.89534 14.3237C8.64643 14.7264 8.19133 14.954 7.71977 14.9115C7.36611 14.8796 6.93808 14.5585 6.08203 13.9165L5.08203 13.1665C4.26747 12.5556 4.08203 12.1847 4.08203 11.1665V9.9165" stroke="currentColor" stroke-width="1.5" stroke-linecap="round" stroke-linejoin="round"/>
<path d="M4.5 9.5V4.5" stroke="currentColor" stroke-width="1.5" stroke-linecap="round" stroke-linejoin="round"/>
</svg>
