<svg width="17" height="19" viewBox="0 0 17 19" fill="none" xmlns="http://www.w3.org/2000/svg">
<path d="M15.7023 13.1127C15.1553 9.82199 13.4527 7.37162 11.9725 5.93234C11.5417 5.51352 11.3264 5.30411 10.8507 5.11031C10.3749 4.9165 9.96599 4.9165 9.14815 4.9165H7.35185C6.534 4.9165 6.12508 4.9165 5.64935 5.11031C5.17362 5.30411 4.95825 5.51352 4.52753 5.93234C3.04735 7.37162 1.34467 9.82199 0.797723 13.1127C0.390775 15.561 2.64939 17.4165 5.1736 17.4165H11.3264C13.8506 17.4165 16.1092 15.561 15.7023 13.1127Z" stroke="currentColor" stroke-width="1.5" stroke-linecap="round"/>
<path d="M8.92623 8.25C8.92623 7.83579 8.59045 7.5 8.17623 7.5C7.76202 7.5 7.42623 7.83579 7.42623 8.25L8.17623 8.25L8.92623 8.25ZM7.42623 14.0833C7.42623 14.4975 7.76202 14.8333 8.17623 14.8333C8.59045 14.8333 8.92623 14.4975 8.92623 14.0833H8.17623H7.42623ZM8.97056 9.95385C9.22121 10.2836 9.69174 10.3477 10.0215 10.0971C10.3513 9.84644 10.4154 9.37592 10.1647 9.04615L9.56765 9.5L8.97056 9.95385ZM7.28806 12.4087C6.9794 12.1325 6.50526 12.1588 6.22902 12.4674C5.95279 12.7761 5.97907 13.2502 6.28773 13.5264L6.78789 12.9676L7.28806 12.4087ZM8.17623 11.0828V10.3328C7.64487 10.3328 7.42989 10.2451 7.36338 10.2002C7.35686 10.1959 7.3527 10.1925 7.3503 10.1904C7.34792 10.1883 7.34687 10.1871 7.34668 10.1869C7.3465 10.1867 7.34666 10.1868 7.3469 10.1872C7.34713 10.1876 7.347 10.1874 7.34656 10.1865C7.34547 10.1842 7.33203 10.1546 7.33203 10.0745H6.58203H5.83203C5.83203 10.5912 6.02113 11.1047 6.52532 11.4443C6.96606 11.7412 7.54817 11.8328 8.17623 11.8328V11.0828ZM6.58203 10.0745H7.33203C7.33203 10.044 7.34717 9.95483 7.49425 9.8463C7.6411 9.73795 7.87976 9.64827 8.17623 9.64827V8.89827V8.14827C7.59226 8.14827 7.03382 8.32191 6.60367 8.63929C6.17377 8.95649 5.83203 9.45541 5.83203 10.0745H6.58203ZM9.91536 12.259H9.16536C9.16536 12.349 9.14588 12.3938 9.13219 12.4171C9.11732 12.4424 9.08742 12.4787 9.0198 12.5193C8.86868 12.6101 8.5883 12.6853 8.17623 12.6853V13.4353V14.1853C8.72467 14.1853 9.31385 14.0925 9.79217 13.8052C10.316 13.4905 10.6654 12.9613 10.6654 12.259H9.91536ZM8.17623 11.0828V11.8328C8.71364 11.8328 8.96735 11.9165 9.07087 11.984C9.10885 12.0088 9.12224 12.0282 9.13163 12.0476C9.14381 12.0728 9.16536 12.1341 9.16536 12.259H9.91536H10.6654C10.6654 11.6394 10.434 11.0822 9.89029 10.7276C9.4141 10.4171 8.79825 10.3328 8.17623 10.3328V11.0828ZM8.17623 8.89827L8.92623 8.89828L8.92623 8.25L8.17623 8.25L7.42623 8.25L7.42623 8.89827L8.17623 8.89827ZM8.17623 13.4353H7.42623V14.0833H8.17623H8.92623V13.4353H8.17623ZM8.17623 8.89827V9.64827C8.59154 9.64827 8.86823 9.81922 8.97056 9.95385L9.56765 9.5L10.1647 9.04615C9.72122 8.46264 8.95623 8.14827 8.17623 8.14827V8.89827ZM8.17623 13.4353V12.6853C7.75626 12.6853 7.44248 12.5469 7.28806 12.4087L6.78789 12.9676L6.28773 13.5264C6.76825 13.9565 7.46193 14.1853 8.17623 14.1853V13.4353Z" fill="currentColor"/>
<path d="M4.29588 2.78572C4.12396 2.53549 3.87476 2.19583 4.38953 2.11837C4.91863 2.03876 5.46804 2.40095 6.00582 2.39351C6.49234 2.38677 6.7402 2.17099 7.00613 1.8629C7.28614 1.53848 7.71972 0.75 8.2487 0.75C8.77768 0.75 9.21125 1.53848 9.49127 1.8629C9.75719 2.17099 10.0051 2.38677 10.4916 2.39351C11.0294 2.40095 11.5788 2.03876 12.1079 2.11837C12.6226 2.19583 12.3734 2.53549 12.2015 2.78572L11.4242 3.9172C11.0916 4.40122 10.9254 4.64323 10.5774 4.77995C10.2295 4.91667 9.77981 4.91667 8.88053 4.91667H7.61687C6.71758 4.91667 6.26794 4.91667 5.91999 4.77995C5.57205 4.64323 5.40578 4.40122 5.07324 3.9172L4.29588 2.78572Z" stroke="currentColor" stroke-width="1.5"/>
</svg>
