<svg width="25" height="24" viewBox="0 0 25 24" fill="none" xmlns="http://www.w3.org/2000/svg">
<path fill-rule="evenodd" clip-rule="evenodd" d="M6.42594 18.0002H17.9803C19.8087 18.0002 20.8524 16.1611 19.7553 14.8724C19.2697 14.3018 18.9704 13.6251 18.8898 12.9155L18.7258 11.47C18.5543 11.4898 18.3799 11.5 18.2031 11.5C15.7178 11.5 13.7031 9.48528 13.7031 7C13.7031 6.02913 14.0105 5.13007 14.5334 4.39487C14.5133 4.3878 14.4932 4.38081 14.4731 4.37391V4.27019C14.4731 3.01653 13.4568 2.00024 12.2031 2.00024C10.9495 2.00024 9.93318 3.01653 9.93318 4.27019V4.37391C7.79078 5.10744 6.20472 6.85088 5.96359 8.97543L5.5164 12.9155C5.43586 13.6251 5.13657 14.3018 4.65091 14.8724C3.55388 16.1611 4.59756 18.0002 6.42594 18.0002ZM15.1752 20.0718C14.7178 21.1995 13.5596 22.0002 12.2031 22.0002C10.8466 22.0002 9.68841 21.1995 9.23103 20.0718C9.21195 20.0247 9.20312 19.9742 9.20312 19.9235C9.20312 19.6896 9.39273 19.5 9.62662 19.5H14.7796C15.0135 19.5 15.2031 19.6896 15.2031 19.9235C15.2031 19.9742 15.1943 20.0247 15.1752 20.0718Z" fill="#4C4958"/>
<rect x="15" y="3" width="7.34766" height="7.34766" rx="3.67383" fill="#34A9FF"/>
<path d="M16.894 7.58675V7.03065L18.2883 4.83398H18.7678V5.60371H18.484L17.605 6.99477V7.02086H19.5864V7.58675H16.894ZM18.497 8.17383V7.41714L18.5101 7.1709V4.83398H19.1722V8.17383H18.497Z" fill="white"/>
</svg>
