<svg width="21" height="22" viewBox="0 0 21 22" fill="none" xmlns="http://www.w3.org/2000/svg">
<path d="M10.2462 0.75C7.23847 0.75 5.28823 2.76899 2.98176 3.5049C2.04393 3.80413 1.57502 3.95374 1.38525 4.16465C1.19548 4.37556 1.13991 4.68375 1.02877 5.30013C-0.160519 11.896 2.43895 17.994 8.63834 20.3675C9.30443 20.6225 9.63748 20.75 10.2495 20.75C10.8616 20.75 11.1946 20.6225 11.8607 20.3675C18.0597 17.9939 20.6567 11.896 19.467 5.30013C19.3558 4.68364 19.3002 4.3754 19.1104 4.16449C18.9206 3.95358 18.4517 3.80405 17.514 3.50499C15.2066 2.76915 13.2541 0.75 10.2462 0.75Z" stroke="#272525" stroke-width="1.5" stroke-linecap="round" stroke-linejoin="round"/>
<path d="M7.24805 11.75C7.24805 11.75 8.24805 11.75 9.24805 13.75C9.24805 13.75 12.4245 8.75 15.248 7.75" stroke="#272525" stroke-width="1.5" stroke-linecap="round" stroke-linejoin="round"/>
</svg>
