<svg width="21" height="22" viewBox="0 0 21 22" fill="none" xmlns="http://www.w3.org/2000/svg">
<path d="M10.2462 0.75C7.23847 0.75 5.28823 2.76899 2.98176 3.5049C2.04393 3.80413 1.57502 3.95374 1.38525 4.16465C1.19548 4.37556 1.13991 4.68375 1.02877 5.30013C-0.160519 11.896 2.43895 17.994 8.63834 20.3675C9.30443 20.6225 9.63748 20.75 10.2495 20.75C10.8616 20.75 11.1946 20.6225 11.8607 20.3675C18.0597 17.9939 20.6567 11.896 19.467 5.30013C19.3558 4.68364 19.3002 4.3754 19.1104 4.16449C18.9206 3.95358 18.4517 3.80405 17.514 3.50499C15.2066 2.76915 13.2541 0.75 10.2462 0.75Z" stroke="currentColor" stroke-width="1.5" stroke-linecap="round" stroke-linejoin="round"/>
<path d="M7.82835 14.6073L7.52412 15.2928L7.52412 15.2928L7.82835 14.6073ZM6.88126 13.5925L6.18171 13.863L6.18171 13.863L6.88126 13.5925ZM13.6148 13.5925L14.3144 13.863L14.3144 13.863L13.6148 13.5925ZM12.6677 14.6073L12.972 15.2928L12.972 15.2928L12.6677 14.6073ZM12.6677 9.26773L12.972 8.5822L12.6677 9.26773ZM13.6148 10.2825L14.3144 10.012L14.3144 10.012L13.6148 10.2825ZM7.82835 9.26773L7.52412 8.5822H7.52412L7.82835 9.26773ZM6.88126 10.2825L6.18171 10.012L6.88126 10.2825ZM7.74805 9.125C7.74805 9.53921 8.08383 9.875 8.49805 9.875C8.91226 9.875 9.24805 9.53921 9.24805 9.125H8.49805H7.74805ZM11.248 9.125C11.248 9.53921 11.5838 9.875 11.998 9.875C12.4123 9.875 12.748 9.53921 12.748 9.125H11.998H11.248ZM9.37305 9.125V9.875H11.123V9.125V8.375H9.37305V9.125ZM11.123 14.75V14H9.37305V14.75L9.37305 15.5H11.123V14.75ZM9.37305 14.75V14C8.95436 14 8.68058 13.9995 8.47021 13.9842C8.26766 13.9693 8.18186 13.9436 8.13259 13.9218L7.82835 14.6073L7.52412 15.2928C7.79645 15.4137 8.07529 15.4593 8.36084 15.4802C8.63857 15.5005 8.97634 15.5 9.37305 15.5L9.37305 14.75ZM6.74805 11.9375H5.99805C5.99805 12.3647 5.99769 12.7202 6.01621 13.0111C6.03511 13.3077 6.07582 13.589 6.18171 13.863L6.88126 13.5925L7.5808 13.3221C7.55349 13.2514 7.52759 13.1421 7.51318 12.9158C7.4984 12.6836 7.49805 12.3839 7.49805 11.9375H6.74805ZM7.82835 14.6073L8.13259 13.9218C7.89516 13.8164 7.69078 13.6066 7.5808 13.3221L6.88126 13.5925L6.18171 13.863C6.42696 14.4974 6.90394 15.0176 7.52412 15.2928L7.82835 14.6073ZM13.748 11.9375H12.998C12.998 12.3839 12.9977 12.6836 12.9829 12.9158C12.9685 13.1421 12.9426 13.2514 12.9153 13.3221L13.6148 13.5925L14.3144 13.863C14.4203 13.589 14.461 13.3077 14.4799 13.0111C14.4984 12.7202 14.498 12.3647 14.498 11.9375H13.748ZM11.123 14.75V15.5C11.5198 15.5 11.8575 15.5005 12.1353 15.4802C12.4208 15.4593 12.6996 15.4137 12.972 15.2928L12.6677 14.6073L12.3635 13.9218C12.3142 13.9436 12.2284 13.9693 12.0259 13.9842C11.8155 13.9995 11.5417 14 11.123 14V14.75ZM13.6148 13.5925L12.9153 13.3221C12.8053 13.6066 12.6009 13.8164 12.3635 13.9218L12.6677 14.6073L12.972 15.2928C13.5922 15.0176 14.0691 14.4974 14.3144 13.863L13.6148 13.5925ZM11.123 9.125V9.875C11.5417 9.875 11.8155 9.87547 12.0259 9.89084C12.2284 9.90565 12.3142 9.93138 12.3635 9.95325L12.6677 9.26773L12.972 8.5822C12.6996 8.46134 12.4208 8.41571 12.1353 8.39484C11.8575 8.37453 11.5198 8.375 11.123 8.375V9.125ZM13.748 11.9375H14.498C14.498 11.5103 14.4984 11.1548 14.4799 10.8639C14.461 10.5673 14.4203 10.286 14.3144 10.012L13.6148 10.2825L12.9153 10.5529C12.9426 10.6236 12.9685 10.7329 12.9829 10.9592C12.9977 11.1914 12.998 11.4911 12.998 11.9375H13.748ZM12.6677 9.26773L12.3635 9.95325C12.6009 10.0586 12.8053 10.2684 12.9153 10.5529L13.6148 10.2825L14.3144 10.012C14.0691 9.37765 13.5922 8.85744 12.972 8.5822L12.6677 9.26773ZM9.37305 9.125V8.375C8.97634 8.375 8.63857 8.37453 8.36084 8.39484C8.07529 8.41571 7.79645 8.46134 7.52412 8.5822L7.82835 9.26773L8.13259 9.95325C8.18186 9.93138 8.26766 9.90565 8.47021 9.89084C8.68058 9.87547 8.95436 9.875 9.37305 9.875V9.125ZM6.74805 11.9375H7.49805C7.49805 11.4911 7.4984 11.1914 7.51318 10.9592C7.52759 10.7329 7.55349 10.6236 7.5808 10.5529L6.88126 10.2825L6.18171 10.012C6.07582 10.286 6.03511 10.5673 6.01621 10.8639C5.99769 11.1548 5.99805 11.5103 5.99805 11.9375H6.74805ZM7.82835 9.26773L7.52412 8.5822C6.90394 8.85744 6.42696 9.37765 6.18171 10.012L6.88126 10.2825L7.5808 10.5529C7.69078 10.2684 7.89516 10.0586 8.13259 9.95325L7.82835 9.26773ZM8.49805 9.125H9.24805V7.4375H8.49805H7.74805V9.125H8.49805ZM11.998 7.4375L11.248 7.4375V9.125H11.998H12.748V7.4375H11.998ZM10.248 5.75V6.5C10.8263 6.5 11.248 6.94521 11.248 7.4375L11.998 7.4375H12.748C12.748 6.06583 11.6028 5 10.248 5V5.75ZM8.49805 7.4375H9.24805C9.24805 6.94521 9.66982 6.5 10.248 6.5V5.75V5C8.89328 5 7.74805 6.06583 7.74805 7.4375H8.49805Z" fill="currentColor"/>
</svg>
