<svg width="13" height="13" viewBox="0 0 13 13" fill="none" xmlns="http://www.w3.org/2000/svg">
<path d="M12.961 4.66692C12.9202 4.54658 12.845 4.44083 12.7448 4.36276C12.6446 4.2847 12.5236 4.23773 12.397 4.22767L8.69264 3.93333L7.08965 0.384938C7.03881 0.270425 6.95585 0.173113 6.85083 0.104791C6.7458 0.0364692 6.62322 6.8864e-05 6.49792 9.76138e-08C6.37263 -6.86688e-05 6.25001 0.0361971 6.14491 0.104404C6.03981 0.172611 5.95674 0.269831 5.90577 0.384288L4.30279 3.93333L0.598455 4.22767C0.473995 4.23753 0.355011 4.28304 0.255737 4.35875C0.156463 4.43447 0.0811037 4.53717 0.0386739 4.65459C-0.00375592 4.77201 -0.0114593 4.89917 0.0164854 5.02085C0.0444302 5.14253 0.10684 5.25359 0.196248 5.34073L2.93373 8.00933L1.96557 12.2016C1.93617 12.3285 1.94559 12.4614 1.99261 12.5828C2.03963 12.7043 2.12208 12.8088 2.22925 12.8829C2.33642 12.9569 2.46337 12.997 2.59363 12.998C2.72388 12.999 2.85143 12.9609 2.95972 12.8885L6.49771 10.5298L10.0357 12.8885C10.1464 12.9619 10.2769 12.9998 10.4097 12.9969C10.5426 12.9939 10.6713 12.9504 10.7787 12.8722C10.886 12.7939 10.9668 12.6846 11.0102 12.5591C11.0536 12.4335 11.0575 12.2977 11.0214 12.1698L9.83298 8.01128L12.7803 5.35892C12.9733 5.18479 13.0441 4.91318 12.961 4.66692Z" fill="#FAAA32"/>
</svg>
