<svg width="29" height="29" viewBox="0 0 29 29" fill="none" xmlns="http://www.w3.org/2000/svg">
<path d="M16.3888 2.67557L18.7352 7.40717C19.0552 8.06583 19.9084 8.6976 20.6283 8.81858L24.8812 9.53101C27.6009 9.98804 28.2408 11.9775 26.281 13.94L22.9747 17.2736C22.4148 17.8382 22.1082 18.927 22.2815 19.7066L23.228 23.8333C23.9746 27.0997 22.2548 28.3633 19.3885 26.6562L15.4022 24.2769C14.6823 23.8468 13.4958 23.8468 12.7625 24.2769L8.77631 26.6562C5.92329 28.3633 4.19015 27.0863 4.93673 23.8333L5.8833 19.7066C6.05661 18.927 5.74998 17.8382 5.19004 17.2736L1.88374 13.94C-0.0627137 11.9775 0.563884 9.98804 3.28358 9.53101L7.53645 8.81858C8.24304 8.6976 9.09627 8.06583 9.41624 7.40717L11.7626 2.67557C13.0425 0.108143 15.1223 0.108143 16.3888 2.67557Z" stroke="currentColor" stroke-width="1.5" stroke-linecap="round" stroke-linejoin="round"/>
</svg>
