<svg width="48" height="45" viewBox="0 0 48 45" fill="none" xmlns="http://www.w3.org/2000/svg">
<rect x="0.800781" width="46.4" height="45" rx="8" fill="#0F60FF"/>
<path d="M12.8008 21.2062L12.8008 12L19.0221 12V13.7251C19.0221 16.722 18.5558 18.7678 17.6231 19.8626C16.8551 20.7583 15.6152 21.2062 13.9035 21.2062L12.8008 21.2062ZM21.725 33C16.7963 33 12.8008 29.0045 12.8008 24.0758L19.82 24.0758C20.9246 24.0758 21.82 23.1804 21.82 22.0758V19.4242C21.82 18.3196 22.7155 17.4242 23.82 17.4242L24.1157 17.4242C25.2203 17.4242 26.1157 18.3196 26.1157 19.4242V22.0758C26.1157 23.1804 27.0111 24.0758 28.1157 24.0758L35.1679 24.0758C35.1679 29.0045 31.1724 33 26.2437 33L23.9843 33L21.725 33ZM33.6043 21.2227C31.333 21.2227 29.7914 19.8957 28.9795 17.2417C28.6722 16.2243 28.5186 14.9139 28.5186 13.3104V12L35.2008 12V21.2227L33.6043 21.2227Z" fill="white"/>
</svg>
