<svg width="32" height="32" viewBox="0 0 32 32" fill="none" xmlns="http://www.w3.org/2000/svg">
<rect x="0.5" y="0.5" width="31" height="31" rx="3.5" fill="white"/>
<rect x="0.5" y="0.5" width="31" height="31" rx="3.5" stroke="#CACACA"/>
<path d="M12.625 14.6667C12.1644 14.6701 11.8872 14.6842 11.6664 14.7427C10.6616 15.0087 9.97369 15.9093 10.0008 16.9231C10.0086 17.2168 10.1204 17.5798 10.344 18.3057C10.8821 20.0527 11.7864 21.5693 13.8123 21.9331C14.1847 22 14.6037 22 15.4418 22L16.5582 22C17.3963 22 17.8153 22 18.1877 21.9331C20.2136 21.5693 21.1179 20.0527 21.656 18.3057C21.8796 17.5798 21.9914 17.2168 21.9992 16.9231C22.0263 15.9093 21.3384 15.0087 20.3336 14.7427C20.1128 14.6842 19.8356 14.6701 19.375 14.6667" stroke="#141B34" stroke-width="1.5" stroke-linecap="round"/>
<path d="M16.0003 10L16.0003 17.3333M16.0003 10C16.3126 10 16.5499 10.2921 17.0246 10.8762L17.667 11.6667M16.0003 10C15.6881 10 15.4507 10.2921 14.976 10.8762L14.3337 11.6667" stroke="#141B34" stroke-width="1.5" stroke-linecap="round" stroke-linejoin="round"/>
</svg>
