<svg width="17" height="19" viewBox="0 0 17 19" fill="none" xmlns="http://www.w3.org/2000/svg">
<path d="M3.73131 11.9847C2.55234 12.6867 -0.538863 14.1201 1.34388 15.9138C2.26359 16.79 3.28791 17.4167 4.57572 17.4167H11.9243C13.2121 17.4167 14.2364 16.79 15.1561 15.9138C17.0389 14.1201 13.9477 12.6867 12.7687 11.9847C10.004 10.3384 6.49599 10.3384 3.73131 11.9847Z" stroke="currentColor" stroke-width="1.5" stroke-linecap="round" stroke-linejoin="round"/>
<path d="M12 4.5C12 6.57107 10.3211 8.25 8.25 8.25C6.17893 8.25 4.5 6.57107 4.5 4.5C4.5 2.42893 6.17893 0.75 8.25 0.75C10.3211 0.75 12 2.42893 12 4.5Z" stroke="currentColor" stroke-width="1.5"/>
</svg>
