<svg width="18" height="19" viewBox="0 0 18 19" fill="none" xmlns="http://www.w3.org/2000/svg">
<path d="M13.25 12.2885C13.25 11.4388 13.9962 10.75 14.9167 10.75C15.8371 10.75 16.5833 11.4388 16.5833 12.2885C16.5833 12.5947 16.4864 12.8801 16.3193 13.1198C15.8212 13.8344 14.9167 14.5157 14.9167 15.3654V15.75M14.9085 17.4167H14.916" stroke="currentColor" stroke-width="1.5" stroke-linecap="round" stroke-linejoin="round"/>
<path d="M12.4167 17.4167H4.57572C3.28791 17.4167 2.26359 16.79 1.34388 15.9138C-0.538863 14.1201 2.55234 12.6867 3.73131 11.9847C5.85671 10.7191 8.42143 10.4265 10.75 11.1068" stroke="currentColor" stroke-width="1.5" stroke-linecap="round" stroke-linejoin="round"/>
<path d="M12.834 4.5C12.834 6.57107 11.1551 8.25 9.08398 8.25C7.01292 8.25 5.33398 6.57107 5.33398 4.5C5.33398 2.42893 7.01292 0.75 9.08398 0.75C11.1551 0.75 12.834 2.42893 12.834 4.5Z" stroke="currentColor" stroke-width="1.5"/>
</svg>
