<svg width="19" height="19" viewBox="0 0 19 19" fill="none" xmlns="http://www.w3.org/2000/svg">
<path d="M11.584 3.25C11.584 4.63071 10.4647 5.75 9.08398 5.75C7.70327 5.75 6.58398 4.63071 6.58398 3.25C6.58398 1.86929 7.70327 0.75 9.08398 0.75C10.4647 0.75 11.584 1.86929 11.584 3.25Z" stroke="currentColor" stroke-width="1.5"/>
<path d="M9.08333 5.75V6.58333M9.08333 6.58333C9.08333 7.3599 9.08333 7.74819 9.23135 8.05447C9.42869 8.46285 9.80723 8.78731 10.2837 8.95647C10.641 9.08333 11.094 9.08333 12 9.08333C12.906 9.08333 13.359 9.08333 13.7163 9.2102C14.1928 9.37936 14.5713 9.70381 14.7687 10.1122C14.9167 10.4185 14.9167 10.8068 14.9167 11.5833V12.4167M9.08333 6.58333C9.08333 7.3599 9.08333 7.74819 8.93532 8.05447C8.73797 8.46285 8.35944 8.78731 7.883 8.95647C7.52566 9.08333 7.07266 9.08333 6.16667 9.08333C5.26067 9.08333 4.80767 9.08333 4.45034 9.2102C3.97389 9.37936 3.59536 9.70381 3.39801 10.1122C3.25 10.4185 3.25 10.8068 3.25 11.5833V12.4167" stroke="currentColor" stroke-width="1.5" stroke-linecap="round" stroke-linejoin="round"/>
<path d="M5.75 14.9165C5.75 16.2972 4.63071 17.4165 3.25 17.4165C1.86929 17.4165 0.75 16.2972 0.75 14.9165C0.75 13.5358 1.86929 12.4165 3.25 12.4165C4.63071 12.4165 5.75 13.5358 5.75 14.9165Z" stroke="currentColor" stroke-width="1.5"/>
<path d="M17.418 14.9165C17.418 16.2972 16.2987 17.4165 14.918 17.4165C13.5373 17.4165 12.418 16.2972 12.418 14.9165C12.418 13.5358 13.5373 12.4165 14.918 12.4165C16.2987 12.4165 17.418 13.5358 17.418 14.9165Z" stroke="currentColor" stroke-width="1.5"/>
</svg>
