<svg width="20" height="22" viewBox="0 0 20 22" fill="none" xmlns="http://www.w3.org/2000/svg">
<path d="M18.6927 15.5854C18.0364 11.6366 15.9932 8.69613 14.217 6.969C13.7001 6.46642 13.4417 6.21513 12.8708 5.98257C12.2999 5.75 11.8092 5.75 10.8278 5.75H8.67222C7.69081 5.75 7.2001 5.75 6.62922 5.98257C6.05834 6.21513 5.79991 6.46642 5.28304 6.969C3.50682 8.69613 1.46361 11.6366 0.807267 15.5854C0.31893 18.5234 3.02927 20.75 6.05832 20.75H13.4417C16.4707 20.75 19.1811 18.5234 18.6927 15.5854Z" stroke="#141B34" stroke-width="1.5" stroke-linecap="round"/>
<path d="M10.413 9.75C10.413 9.33579 10.0773 9 9.66304 9C9.24883 9 8.91304 9.33579 8.91304 9.75L9.66304 9.75L10.413 9.75ZM8.91304 16.75C8.91304 17.1642 9.24883 17.5 9.66304 17.5C10.0773 17.5 10.413 17.1642 10.413 16.75H9.66304H8.91304ZM10.7357 11.7039C10.9863 12.0336 11.4568 12.0977 11.7866 11.8471C12.1164 11.5964 12.1805 11.1259 11.9298 10.7961L11.3327 11.25L10.7357 11.7039ZM8.4972 14.8522C8.18854 14.576 7.7144 14.6023 7.43816 14.9109C7.16193 15.2196 7.18821 15.6937 7.49687 15.97L7.99703 15.4111L8.4972 14.8522ZM9.66304 13.1493V12.3993C9.01574 12.3993 8.72105 12.2937 8.60381 12.2147C8.55003 12.1785 8.5 12.1374 8.5 11.9395H7.75H7C7 12.521 7.21084 13.0849 7.76576 13.4588C8.25721 13.7898 8.91904 13.8993 9.66304 13.8993V13.1493ZM7.75 11.9395H8.5C8.5 11.844 8.55082 11.696 8.75561 11.5449C8.96015 11.3939 9.27852 11.2779 9.66304 11.2779V10.5279V9.77793C8.99102 9.77793 8.35287 9.9779 7.86503 10.3379C7.37743 10.6976 7 11.2554 7 11.9395H7.75ZM11.75 14.5609H11C11 14.7828 10.9211 14.9005 10.7526 15.0018C10.5385 15.1304 10.1712 15.2224 9.66304 15.2224V15.9724V16.7224C10.3075 16.7224 10.9837 16.6128 11.5249 16.2876C12.1117 15.9352 12.5 15.3471 12.5 14.5609H11.75ZM9.66304 13.1493V13.8993C10.3164 13.8993 10.6571 13.9999 10.8185 14.1052C10.9126 14.1665 11 14.2563 11 14.5609H11.75H12.5C12.5 13.8572 12.2396 13.2412 11.638 12.8488C11.1038 12.5004 10.401 12.3993 9.66304 12.3993V13.1493ZM9.66304 10.5279L10.413 10.5279L10.413 9.75L9.66304 9.75L8.91304 9.75L8.91304 10.5279L9.66304 10.5279ZM9.66304 15.9724H8.91304V16.75H9.66304H10.413V15.9724H9.66304ZM9.66304 10.5279V11.2779C10.1979 11.2779 10.5787 11.4974 10.7357 11.7039L11.3327 11.25L11.9298 10.7961C11.4317 10.1408 10.5626 9.77793 9.66304 9.77793V10.5279ZM9.66304 15.9724V15.2224C9.12965 15.2224 8.71511 15.0472 8.4972 14.8522L7.99703 15.4111L7.49687 15.97C8.04089 16.4568 8.83531 16.7224 9.66304 16.7224V15.9724Z" fill="#141B34"/>
<path d="M5.00662 3.19287C4.80031 2.89258 4.50128 2.48499 5.11899 2.39205C5.75392 2.29651 6.41321 2.73114 7.05855 2.72221C7.64237 2.71413 7.9398 2.45519 8.25891 2.08548C8.59493 1.69617 9.11523 0.75 9.75 0.75C10.3848 0.75 10.9051 1.69617 11.2411 2.08548C11.5602 2.45519 11.8576 2.71413 12.4414 2.72221C13.0868 2.73114 13.7461 2.29651 14.381 2.39205C14.9987 2.48499 14.6997 2.89258 14.4934 3.19287L13.5605 4.55064C13.1615 5.13146 12.962 5.42187 12.5444 5.58594C12.1269 5.75 11.5873 5.75 10.5082 5.75H8.9918C7.91266 5.75 7.3731 5.75 6.95556 5.58594C6.53802 5.42187 6.3385 5.13146 5.93945 4.55064L5.00662 3.19287Z" stroke="#141B34" stroke-width="1.5"/>
</svg>