<svg width="19" height="22" viewBox="0 0 19 22" fill="none" xmlns="http://www.w3.org/2000/svg">
<path d="M8.25 20.75L6.77157 18.3961C5.74181 16.7565 5.22692 15.9367 4.41053 15.7893C3.08152 15.5493 1.70794 16.4545 0.75 17.259" stroke="#141B34" stroke-width="1.5"/>
<path d="M0.75 7.75V14.7779C0.75 15.9807 0.75 16.5821 1.0487 17.0654C1.3474 17.5487 1.88531 17.8177 2.96115 18.3556L6.90542 20.3277C7.74618 20.7481 7.75427 20.75 8.69427 20.75H11.75C14.5784 20.75 15.9926 20.75 16.8713 19.8713C17.75 18.9926 17.75 17.5784 17.75 14.75V7.75C17.75 4.92157 17.75 3.50736 16.8713 2.62868C15.9926 1.75 14.5784 1.75 11.75 1.75H6.75C3.92157 1.75 2.50736 1.75 1.62868 2.62868C0.75 3.50736 0.75 4.92157 0.75 7.75Z" stroke="#141B34" stroke-width="1.5"/>
<path d="M9.25 7.75H5.25M13.25 12.75H5.25" stroke="#141B34" stroke-width="1.5" stroke-linecap="round" stroke-linejoin="round"/>
<path d="M14.25 0.75V2.75M9.25 0.75V2.75M4.25 0.75V2.75" stroke="#141B34" stroke-width="1.5" stroke-linecap="round" stroke-linejoin="round"/>
</svg>