<svg width="15" height="15" viewBox="0 0 15 15" fill="none" xmlns="http://www.w3.org/2000/svg">
<path d="M7.41862 0.75L7.4209 12.3522C7.18064 12.3517 6.94096 12.4054 6.76014 12.5135L4.76703 13.7031C3.33385 14.5566 2.47395 13.9249 2.84724 12.2917L3.32052 10.2283C3.40718 9.83849 3.25386 9.29409 2.97389 9.01181L1.32074 7.345C0.340851 6.36373 0.660816 5.36902 2.02067 5.1405L4.1471 4.78429C4.50706 4.7238 4.93368 4.40791 5.09366 4.07858L6.26686 1.71279C6.58292 1.07209 7.00026 0.751162 7.41862 0.75ZM7.41862 0.75H7.4209M9.41862 13.3124L10.0731 13.7031C11.4996 14.5566 12.3662 13.9181 11.9929 12.2917L11.5196 10.2283C11.433 9.83849 11.5863 9.29409 11.8662 9.01181L13.5194 7.345C14.4926 6.36373 14.1793 5.36902 12.8195 5.1405L10.693 4.78429C10.3397 4.7238 9.91313 4.40791 9.75314 4.07858L9.41862 3.40401" stroke="#141B34" stroke-width="1.5" stroke-linecap="round" stroke-linejoin="round"/>
</svg>